<?xml version="1.0" encoding="UTF-8"?>
<!DOCTYPE svg PUBLIC "-//W3C//DTD SVG 1.1//EN" "http://www.w3.org/Graphics/SVG/1.1/DTD/svg11.dtd">
<svg xmlns="http://www.w3.org/2000/svg" version="1.1" width="217px" height="40px" style="shape-rendering:geometricPrecision; text-rendering:geometricPrecision; image-rendering:optimizeQuality; fill-rule:evenodd; clip-rule:evenodd" xmlns:xlink="http://www.w3.org/1999/xlink">
<g><path style="opacity:0.496" fill="#797979" d="M 148.5,4.5 C 148.436,5.36524 148.103,6.36524 147.5,7.5C 146.833,7.5 146.167,7.5 145.5,7.5C 145.167,7.5 144.833,7.5 144.5,7.5C 144.631,6.76109 144.464,6.09442 144,5.5C 143.583,6.75598 142.75,7.42265 141.5,7.5C 140.5,7.5 139.5,7.5 138.5,7.5C 138.167,7.5 137.833,7.5 137.5,7.5C 136.5,7.5 135.5,7.5 134.5,7.5C 134.167,7.5 133.833,7.5 133.5,7.5C 131.901,7.23219 130.568,7.56552 129.5,8.5C 127.833,8.5 126.167,8.5 124.5,8.5C 124.5,9.5 124.5,10.5 124.5,11.5C 123.566,10.4324 123.232,9.09903 123.5,7.5C 122.167,7.5 120.833,7.5 119.5,7.5C 119.5,8.5 119.5,9.5 119.5,10.5C 115.632,8.15129 111.465,6.48462 107,5.5C 103.731,6.31585 100.564,7.31585 97.5,8.5C 94.8333,8.5 92.1667,8.5 89.5,8.5C 89.1667,8.5 88.8333,8.5 88.5,8.5C 87.5,8.5 86.5,8.5 85.5,8.5C 83.8333,8.5 82.1667,8.5 80.5,8.5C 80.7678,10.099 80.4345,11.4324 79.5,12.5C 79.5,11.1667 78.8333,10.5 77.5,10.5C 76.5,7.83333 75.5,7.83333 74.5,10.5C 73.5,10.5 72.5,10.5 71.5,10.5C 71.1788,8.95186 70.1788,8.28519 68.5,8.5C 68.7678,10.099 68.4345,11.4324 67.5,12.5C 66.8333,8.5 66.1667,8.5 65.5,12.5C 64.5655,11.4324 64.2322,10.099 64.5,8.5C 64.8212,6.95186 65.8212,6.28519 67.5,6.5C 80.6909,6.35268 93.8575,5.68601 107,4.5C 110.48,4.45234 113.813,5.11901 117,6.5C 127.166,5.35469 137.333,4.35469 147.5,3.5C 148.107,3.62358 148.44,3.95691 148.5,4.5 Z"/></g>
<g><path style="opacity:0.998" fill="#e6e6e6" d="M 119.5,10.5 C 119.5,16.1667 119.5,21.8333 119.5,27.5C 113.974,27.1786 108.64,27.5119 103.5,28.5C 101.95,29.4408 100.284,30.1075 98.5,30.5C 98.0294,23.0257 97.6961,15.6924 97.5,8.5C 100.564,7.31585 103.731,6.31585 107,5.5C 111.465,6.48462 115.632,8.15129 119.5,10.5 Z"/></g>
<g><path style="opacity:0.075" fill="#707070" d="M 149.5,4.5 C 151.826,5.15111 154.159,5.81777 156.5,6.5C 160.177,4.86025 163.511,5.19358 166.5,7.5C 163.833,7.5 161.167,7.5 158.5,7.5C 158.5,8.5 158.5,9.5 158.5,10.5C 157.609,9.89022 156.609,9.55688 155.5,9.5C 154.947,7.44818 153.947,7.11484 152.5,8.5C 150.352,8.61063 150.019,7.94396 151.5,6.5C 151.154,5.30441 150.654,5.30441 150,6.5C 149.536,5.90558 149.369,5.23891 149.5,4.5 Z"/></g>
<g><path style="opacity:0.999" fill="#0f0f0f" d="M 124.5,11.5 C 125.011,15.2423 125.844,18.909 127,22.5C 128.029,17.8564 128.862,13.1897 129.5,8.5C 130.568,7.56552 131.901,7.23219 133.5,7.5C 134.13,15.2428 133.463,22.5762 131.5,29.5C 131.788,9.65442 130.788,9.65442 128.5,29.5C 127.5,29.5 126.5,29.5 125.5,29.5C 125.737,28.209 125.404,27.209 124.5,26.5C 124.453,23.4318 123.953,20.4318 123,17.5C 122.502,20.8168 122.335,24.1501 122.5,27.5C 122.179,29.0481 121.179,29.7148 119.5,29.5C 119.5,28.8333 119.5,28.1667 119.5,27.5C 119.5,21.8333 119.5,16.1667 119.5,10.5C 119.5,9.5 119.5,8.5 119.5,7.5C 120.833,7.5 122.167,7.5 123.5,7.5C 123.232,9.09903 123.566,10.4324 124.5,11.5 Z"/></g>
<g><path style="opacity:0.999" fill="#0e0e0e" d="M 145.5,7.5 C 146.167,7.5 146.833,7.5 147.5,7.5C 149.268,11.3748 150.768,15.3748 152,19.5C 152.499,15.8484 152.665,12.1817 152.5,8.5C 153.947,7.11484 154.947,7.44818 155.5,9.5C 155.5,15.5 155.5,21.5 155.5,27.5C 155.179,29.0481 154.179,29.7148 152.5,29.5C 152.737,28.209 152.404,27.209 151.5,26.5C 150.833,24.1667 150.167,21.8333 149.5,19.5C 149.013,18.5266 148.513,17.5266 148,16.5C 147.828,20.8711 147.328,25.2044 146.5,29.5C 145.503,22.1968 145.169,14.8635 145.5,7.5 Z"/></g>
<g><path style="opacity:0.999" fill="#1d1d1d" d="M 166.5,7.5 C 166.5,7.83333 166.5,8.16667 166.5,8.5C 165.167,9.16667 163.833,9.83333 162.5,10.5C 162.5,12.5 162.5,14.5 162.5,16.5C 163.833,16.5 165.167,16.5 166.5,16.5C 166.5,17.5 166.5,18.5 166.5,19.5C 165.167,19.5 163.833,19.5 162.5,19.5C 162.5,21.8333 162.5,24.1667 162.5,26.5C 164.483,26.1568 165.817,26.8235 166.5,28.5C 165.378,29.1558 164.045,29.4892 162.5,29.5C 160.667,29.4146 159.334,28.7479 158.5,27.5C 158.5,21.8333 158.5,16.1667 158.5,10.5C 158.5,9.5 158.5,8.5 158.5,7.5C 161.167,7.5 163.833,7.5 166.5,7.5 Z"/></g>
<g><path style="opacity:0.37" fill="#787878" d="M 67.5,6.5 C 65.8212,6.28519 64.8212,6.95186 64.5,8.5C 63.209,8.26269 62.209,8.59603 61.5,9.5C 59.2188,9.07729 57.5521,9.74395 56.5,11.5C 55.1667,11.5 53.8333,11.5 52.5,11.5C 51.6522,10.375 50.6522,10.375 49.5,11.5C 48.5084,11.3284 47.8417,11.6618 47.5,12.5C 46.1952,14.3972 45.5286,16.7305 45.5,19.5C 45.8333,21.8333 46.1667,24.1667 46.5,26.5C 47.1067,26.3764 47.44,26.0431 47.5,25.5C 48.1667,25.5 48.8333,25.5 49.5,25.5C 51.6669,26.6411 54.0002,27.6411 56.5,28.5C 55.5291,29.9621 55.8624,31.2954 57.5,32.5C 58.5596,30.2516 60.5596,29.2516 63.5,29.5C 63.5,28.1667 63.5,26.8333 63.5,25.5C 64.4511,26.9187 64.7845,28.5853 64.5,30.5C 65.5,30.5 66.5,30.5 67.5,30.5C 67.2322,28.901 67.5655,27.5676 68.5,26.5C 68.5,27.5 68.5,28.5 68.5,29.5C 69.791,29.7373 70.791,29.404 71.5,28.5C 72.4674,29.8062 73.8007,30.4729 75.5,30.5C 75.1936,27.6146 75.5269,24.9479 76.5,22.5C 76.1984,25.0593 76.5318,27.3926 77.5,29.5C 78.209,30.404 79.209,30.7373 80.5,30.5C 72.9517,31.2621 65.285,32.2621 57.5,33.5C 56.1055,33.3793 54.7722,33.046 53.5,32.5C 52.7717,30.8068 51.7717,29.3068 50.5,28C 46.7745,27.2401 43.1078,27.4068 39.5,28.5C 34.8387,27.9027 30.5054,26.5694 26.5,24.5C 28.5,24.5 30.5,24.5 32.5,24.5C 32.7633,20.3998 32.4299,16.3998 31.5,12.5C 32.8333,16.8333 34.1667,21.1667 35.5,25.5C 36.5,25.5 37.5,25.5 38.5,25.5C 39.1667,25.5 39.8333,25.5 40.5,25.5C 40.56,26.0431 40.8933,26.3764 41.5,26.5C 42.4742,24.2573 42.8076,21.924 42.5,19.5C 43.3091,21.2922 43.8091,23.2922 44,25.5C 44.6667,20.8333 44.6667,16.1667 44,11.5C 43.8091,13.7078 43.3091,15.7078 42.5,17.5C 43.3419,13.3791 42.0085,10.3791 38.5,8.5C 41.4284,8.85164 44.2617,9.51831 47,10.5C 53.1405,8.88927 59.3072,7.2226 65.5,5.5C 66.4164,5.54272 67.0831,5.87605 67.5,6.5 Z"/></g>
<g><path style="opacity:1" fill="#0e0e0e" d="M 64.5,8.5 C 64.2322,10.099 64.5655,11.4324 65.5,12.5C 65.5,14.8333 65.5,17.1667 65.5,19.5C 66.2456,24.4792 66.9122,24.1458 67.5,18.5C 67.5,16.5 67.5,14.5 67.5,12.5C 68.4345,11.4324 68.7678,10.099 68.5,8.5C 70.1788,8.28519 71.1788,8.95186 71.5,10.5C 72.388,13.0545 72.7214,15.7212 72.5,18.5C 72.3433,19.8734 72.51,21.2068 73,22.5C 74.3515,20.4062 74.8515,18.0728 74.5,15.5C 74.5,13.8333 74.5,12.1667 74.5,10.5C 75.5,7.83333 76.5,7.83333 77.5,10.5C 76.8379,14.4659 76.5045,18.4659 76.5,22.5C 75.5269,24.9479 75.1936,27.6146 75.5,30.5C 73.8007,30.4729 72.4674,29.8062 71.5,28.5C 71.5153,24.4402 71.0153,20.4402 70,16.5C 69.1744,19.7928 68.6744,23.1262 68.5,26.5C 67.5655,27.5676 67.2322,28.901 67.5,30.5C 66.5,30.5 65.5,30.5 64.5,30.5C 64.7845,28.5853 64.4511,26.9187 63.5,25.5C 63.3205,20.0636 62.6538,14.7303 61.5,9.5C 62.209,8.59603 63.209,8.26269 64.5,8.5 Z"/></g>
<g><path style="opacity:0.999" fill="#151515" d="M 85.5,8.5 C 87.8076,32.3732 88.8076,32.3732 88.5,8.5C 88.8333,8.5 89.1667,8.5 89.5,8.5C 89.5,15.8333 89.5,23.1667 89.5,30.5C 88.1667,30.5 86.8333,30.5 85.5,30.5C 85.6162,27.0897 83.9496,25.7564 80.5,26.5C 80.5,27.8333 80.5,29.1667 80.5,30.5C 79.209,30.7373 78.209,30.404 77.5,29.5C 78.2486,23.8447 78.9152,18.1781 79.5,12.5C 80.4345,11.4324 80.7678,10.099 80.5,8.5C 82.1667,8.5 83.8333,8.5 85.5,8.5 Z"/></g>
<g><path style="opacity:1" fill="#efefef" d="M 85.5,8.5 C 86.5,8.5 87.5,8.5 88.5,8.5C 88.8076,32.3732 87.8076,32.3732 85.5,8.5 Z"/></g>
<g><path style="opacity:1" fill="#0e0e0e" d="M 89.5,8.5 C 92.1667,8.5 94.8333,8.5 97.5,8.5C 97.6961,15.6924 98.0294,23.0257 98.5,30.5C 97.5,30.5 96.5,30.5 95.5,30.5C 95.8128,26.9581 95.4794,23.6248 94.5,20.5C 93.8333,20.5 93.1667,20.5 92.5,20.5C 92.1187,24.1188 91.1187,27.4521 89.5,30.5C 89.5,23.1667 89.5,15.8333 89.5,8.5 Z"/></g>
<g><path style="opacity:1" fill="#fafafa" d="M 144.5,7.5 C 144.666,14.175 144.5,20.8417 144,27.5C 143.329,28.2524 142.496,28.5858 141.5,28.5C 141.5,21.5 141.5,14.5 141.5,7.5C 142.75,7.42265 143.583,6.75598 144,5.5C 144.464,6.09442 144.631,6.76109 144.5,7.5 Z"/></g>
<g><path style="opacity:1" fill="#eaeaea" d="M 61.5,9.5 C 62.6538,14.7303 63.3205,20.0636 63.5,25.5C 63.5,26.8333 63.5,28.1667 63.5,29.5C 60.5596,29.2516 58.5596,30.2516 57.5,32.5C 55.8624,31.2954 55.5291,29.9621 56.5,28.5C 54.0002,27.6411 51.6669,26.6411 49.5,25.5C 49.5,20.8333 49.5,16.1667 49.5,11.5C 50.6522,10.375 51.6522,10.375 52.5,11.5C 51.5269,13.0683 51.3603,14.735 52,16.5C 54.7069,18.5721 55.7069,21.2388 55,24.5C 54.0766,23.2412 53.2432,21.9079 52.5,20.5C 50.912,23.4684 51.7454,25.4684 55,26.5C 56.9468,25.9561 57.7801,24.6228 57.5,22.5C 57.2317,19.2967 55.8984,16.63 53.5,14.5C 54.8055,12.0695 55.8055,12.4028 56.5,15.5C 57.782,14.0416 57.782,12.7082 56.5,11.5C 57.5521,9.74395 59.2188,9.07729 61.5,9.5 Z"/></g>
<g><path style="opacity:1" fill="#e5e5e5" d="M 129.5,8.5 C 128.862,13.1897 128.029,17.8564 127,22.5C 125.844,18.909 125.011,15.2423 124.5,11.5C 124.5,10.5 124.5,9.5 124.5,8.5C 126.167,8.5 127.833,8.5 129.5,8.5 Z"/></g>
<g><path style="opacity:0.953" fill="#9e9e9e" d="M 38.5,8.5 C 42.0085,10.3791 43.3419,13.3791 42.5,17.5C 41.1667,15.5 39.8333,13.5 38.5,11.5C 38.5654,11.0618 38.3988,10.7284 38,10.5C 37.7645,12.1193 36.9311,13.1193 35.5,13.5C 35.6107,12.8826 35.944,12.3826 36.5,12C 34.8659,11.5065 33.1992,11.3398 31.5,11.5C 30.9222,10.453 30.2555,10.6197 29.5,12C 27.1902,12.4966 24.8568,12.6633 22.5,12.5C 27.3764,9.77147 32.7098,8.43814 38.5,8.5 Z"/></g>
<g><path style="opacity:1" fill="#efefef" d="M 67.5,12.5 C 67.5,14.5 67.5,16.5 67.5,18.5C 66.8333,18.8333 66.1667,19.1667 65.5,19.5C 65.5,17.1667 65.5,14.8333 65.5,12.5C 66.1667,8.5 66.8333,8.5 67.5,12.5 Z"/></g>
<g><path style="opacity:1" fill="#f3f3f3" d="M 71.5,10.5 C 72.5,10.5 73.5,10.5 74.5,10.5C 74.5,12.1667 74.5,13.8333 74.5,15.5C 73.8333,16.5 73.1667,17.5 72.5,18.5C 72.7214,15.7212 72.388,13.0545 71.5,10.5 Z"/></g>
<g><path style="opacity:1" fill="#171717" d="M 110.5,10.5 C 112.288,10.2148 113.955,10.5481 115.5,11.5C 114.675,12.3857 113.675,12.719 112.5,12.5C 112.227,14.451 112.893,15.951 114.5,17C 112.709,19.1062 112.042,21.6062 112.5,24.5C 110.564,20.2853 109.897,15.6186 110.5,10.5 Z"/></g>
<g><path style="opacity:1" fill="#bdbdbd" d="M 148.5,4.5 C 148.833,4.5 149.167,4.5 149.5,4.5C 149.369,5.23891 149.536,5.90558 150,6.5C 150.654,5.30441 151.154,5.30441 151.5,6.5C 150.019,7.94396 150.352,8.61063 152.5,8.5C 152.665,12.1817 152.499,15.8484 152,19.5C 150.768,15.3748 149.268,11.3748 147.5,7.5C 148.103,6.36524 148.436,5.36524 148.5,4.5 Z"/></g>
<g><path style="opacity:1" fill="#fcfcfc" d="M 155.5,9.5 C 156.609,9.55688 157.609,9.89022 158.5,10.5C 158.5,16.1667 158.5,21.8333 158.5,27.5C 157.5,27.5 156.5,27.5 155.5,27.5C 155.5,21.5 155.5,15.5 155.5,9.5 Z"/></g>
<g><path style="opacity:0.998" fill="#f7f7f7" d="M 31.5,11.5 C 31.5,11.8333 31.5,12.1667 31.5,12.5C 32.4299,16.3998 32.7633,20.3998 32.5,24.5C 30.5,24.5 28.5,24.5 26.5,24.5C 24.6203,24.7709 23.287,24.1042 22.5,22.5C 22.3285,20.5082 22.9951,18.8415 24.5,17.5C 23.2713,16.7189 21.938,16.2189 20.5,16C 22.8333,15.6667 25.1667,15.3333 27.5,15C 23.5138,14.5012 19.5138,14.3345 15.5,14.5C 12.8753,13.5343 12.8753,12.5343 15.5,11.5C 17.7466,12.3742 20.0799,12.7076 22.5,12.5C 24.8568,12.6633 27.1902,12.4966 29.5,12C 30.2555,10.6197 30.9222,10.453 31.5,11.5 Z"/></g>
<g><path style="opacity:1" fill="#000000" d="M 31.5,12.5 C 31.5,12.1667 31.5,11.8333 31.5,11.5C 33.1992,11.3398 34.8659,11.5065 36.5,12C 35.944,12.3826 35.6107,12.8826 35.5,13.5C 35.5,17.5 35.5,21.5 35.5,25.5C 34.1667,21.1667 32.8333,16.8333 31.5,12.5 Z"/></g>
<g><path style="opacity:1" fill="#020202" d="M 38.5,11.5 C 39.8333,13.5 41.1667,15.5 42.5,17.5C 43.3091,15.7078 43.8091,13.7078 44,11.5C 44.6667,16.1667 44.6667,20.8333 44,25.5C 43.8091,23.2922 43.3091,21.2922 42.5,19.5C 42.44,18.9569 42.1067,18.6236 41.5,18.5C 40.5258,20.7427 40.1924,23.076 40.5,25.5C 39.8333,25.5 39.1667,25.5 38.5,25.5C 38.5,20.8333 38.5,16.1667 38.5,11.5 Z"/></g>
<g><path style="opacity:1" fill="#010101" d="M 49.5,11.5 C 49.5,16.1667 49.5,20.8333 49.5,25.5C 48.8333,25.5 48.1667,25.5 47.5,25.5C 47.5,21.1667 47.5,16.8333 47.5,12.5C 47.8417,11.6618 48.5084,11.3284 49.5,11.5 Z"/></g>
<g><path style="opacity:1" fill="#e0e0e0" d="M 92.5,10.5 C 94.7224,10.5587 95.7224,11.7253 95.5,14C 95.6125,15.6624 94.9458,16.8291 93.5,17.5C 92.5258,15.2573 92.1924,12.924 92.5,10.5 Z"/></g>
<g><path style="opacity:1" fill="#171717" d="M 102.5,10.5 C 104.167,10.5 105.833,10.5 107.5,10.5C 107.666,15.1785 107.499,19.8452 107,24.5C 105.062,25.8602 103.396,25.5268 102,23.5C 101.232,19.0804 101.398,14.7471 102.5,10.5 Z"/></g>
<g><path style="opacity:0.016" fill="#7f807f" d="M 11.5,12.5 C 12.8333,13.1667 12.8333,13.1667 11.5,12.5 Z"/></g>
<g><path style="opacity:1" fill="#dedede" d="M 47.5,12.5 C 47.5,16.8333 47.5,21.1667 47.5,25.5C 47.44,26.0431 47.1067,26.3764 46.5,26.5C 46.1667,24.1667 45.8333,21.8333 45.5,19.5C 45.5286,16.7305 46.1952,14.3972 47.5,12.5 Z"/></g>
<g><path style="opacity:0.999" fill="#f8f8f8" d="M 162.5,10.5 C 166.893,10.4568 167.226,10.9568 163.5,12C 169.13,13.1854 174.797,14.1854 180.5,15C 181.833,17 181.833,19 180.5,21C 182.134,21.4935 183.801,21.6602 185.5,21.5C 186.167,21.5 186.833,21.5 187.5,21.5C 184.645,23.2501 181.311,24.0835 177.5,24C 181.767,24.1894 185.767,25.0227 189.5,26.5C 189.167,26.5 188.833,26.5 188.5,26.5C 183.821,26.3342 179.155,26.5008 174.5,27C 173.944,27.3826 173.611,27.8826 173.5,28.5C 171.374,28.1501 169.041,28.1501 166.5,28.5C 165.817,26.8235 164.483,26.1568 162.5,26.5C 162.5,24.1667 162.5,21.8333 162.5,19.5C 163.833,19.5 165.167,19.5 166.5,19.5C 166.5,18.5 166.5,17.5 166.5,16.5C 165.167,16.5 163.833,16.5 162.5,16.5C 162.5,14.5 162.5,12.5 162.5,10.5 Z"/></g>
<g><path style="opacity:0.039" fill="#838383" d="M 166.5,8.5 C 167.931,9.4458 169.264,10.6125 170.5,12C 174.287,12.1596 177.954,12.8263 181.5,14C 182.449,16.7336 183.783,19.2336 185.5,21.5C 183.801,21.6602 182.134,21.4935 180.5,21C 181.833,19 181.833,17 180.5,15C 174.797,14.1854 169.13,13.1854 163.5,12C 167.226,10.9568 166.893,10.4568 162.5,10.5C 163.833,9.83333 165.167,9.16667 166.5,8.5 Z"/></g>
<g><path style="opacity:1" fill="#fcfcfc" d="M 38.5,11.5 C 38.5,16.1667 38.5,20.8333 38.5,25.5C 37.5,25.5 36.5,25.5 35.5,25.5C 35.5,21.5 35.5,17.5 35.5,13.5C 36.9311,13.1193 37.7645,12.1193 38,10.5C 38.3988,10.7284 38.5654,11.0618 38.5,11.5 Z"/></g>
<g><path style="opacity:0.914" fill="#afafaf" d="M 15.5,14.5 C 19.5138,14.3345 23.5138,14.5012 27.5,15C 25.1667,15.3333 22.8333,15.6667 20.5,16C 21.938,16.2189 23.2713,16.7189 24.5,17.5C 22.9951,18.8415 22.3285,20.5082 22.5,22.5C 21.6981,21.0484 21.1981,19.3817 21,17.5C 18.1827,18.5061 16.3494,17.5061 15.5,14.5 Z"/></g>
<g><path style="opacity:1" fill="#cccccc" d="M 104.5,11.5 C 105.809,15.3507 105.809,19.3507 104.5,23.5C 103.235,19.4539 103.235,15.4539 104.5,11.5 Z"/></g>
<g><path style="opacity:1" fill="#9e9e9e" d="M 110.5,10.5 C 109.897,15.6186 110.564,20.2853 112.5,24.5C 111.791,25.404 110.791,25.7373 109.5,25.5C 109.179,20.3054 109.513,15.3054 110.5,10.5 Z"/></g>
<g><path style="opacity:1" fill="#1b1b1b" d="M 52.5,11.5 C 53.8333,11.5 55.1667,11.5 56.5,11.5C 57.782,12.7082 57.782,14.0416 56.5,15.5C 55.8055,12.4028 54.8055,12.0695 53.5,14.5C 55.8984,16.63 57.2317,19.2967 57.5,22.5C 57.7801,24.6228 56.9468,25.9561 55,26.5C 51.7454,25.4684 50.912,23.4684 52.5,20.5C 53.2432,21.9079 54.0766,23.2412 55,24.5C 55.7069,21.2388 54.7069,18.5721 52,16.5C 51.3603,14.735 51.5269,13.0683 52.5,11.5 Z"/></g>
<g><path style="opacity:1" fill="#cccccc" d="M 82.5,13.5 C 83.5249,16.9736 84.1916,20.6403 84.5,24.5C 83.5,24.5 82.5,24.5 81.5,24.5C 81.5524,20.8019 81.8857,17.1352 82.5,13.5 Z"/></g>
<g><path style="opacity:1" fill="#c3c3c3" d="M 42.5,19.5 C 42.8076,21.924 42.4742,24.2573 41.5,26.5C 40.8933,26.3764 40.56,26.0431 40.5,25.5C 40.1924,23.076 40.5258,20.7427 41.5,18.5C 42.1067,18.6236 42.44,18.9569 42.5,19.5 Z"/></g>
<g><path style="opacity:1" fill="#dcdcdc" d="M 71.5,28.5 C 70.791,29.404 69.791,29.7373 68.5,29.5C 68.5,28.5 68.5,27.5 68.5,26.5C 68.6744,23.1262 69.1744,19.7928 70,16.5C 71.0153,20.4402 71.5153,24.4402 71.5,28.5 Z"/></g>
<g><path style="opacity:0.995" fill="#eeeeee" d="M 149.5,19.5 C 150.167,21.8333 150.833,24.1667 151.5,26.5C 150.791,27.404 149.791,27.7373 148.5,27.5C 148.194,24.6146 148.527,21.9479 149.5,19.5 Z"/></g>
<g><path style="opacity:1" fill="#727272" d="M 74.5,15.5 C 74.8515,18.0728 74.3515,20.4062 73,22.5C 72.51,21.2068 72.3433,19.8734 72.5,18.5C 73.1667,17.5 73.8333,16.5 74.5,15.5 Z"/></g>
<g><path style="opacity:1" fill="#d9d9d9" d="M 77.5,10.5 C 78.8333,10.5 79.5,11.1667 79.5,12.5C 78.9152,18.1781 78.2486,23.8447 77.5,29.5C 76.5318,27.3926 76.1984,25.0593 76.5,22.5C 76.5045,18.4659 76.8379,14.4659 77.5,10.5 Z"/></g>
<g><path style="opacity:1" fill="#b1b1b1" d="M 131.5,29.5 C 130.5,29.5 129.5,29.5 128.5,29.5C 130.788,9.65442 131.788,9.65442 131.5,29.5 Z"/></g>
<g><path style="opacity:1" fill="#5d5d5d" d="M 67.5,18.5 C 66.9122,24.1458 66.2456,24.4792 65.5,19.5C 66.1667,19.1667 66.8333,18.8333 67.5,18.5 Z"/></g>
<g><path style="opacity:1" fill="#e7e7e7" d="M 124.5,26.5 C 124.158,27.3382 123.492,27.6716 122.5,27.5C 122.335,24.1501 122.502,20.8168 123,17.5C 123.953,20.4318 124.453,23.4318 124.5,26.5 Z"/></g>
<g><path style="opacity:0.741" fill="#aeaeae" d="M 187.5,21.5 C 188.525,23.515 190.192,24.8483 192.5,25.5C 191.675,26.3857 190.675,26.719 189.5,26.5C 185.767,25.0227 181.767,24.1894 177.5,24C 181.311,24.0835 184.645,23.2501 187.5,21.5 Z"/></g>
<g><path style="opacity:0.33" fill="#7d7d7d" d="M 103.5,28.5 C 108.64,27.5119 113.974,27.1786 119.5,27.5C 119.5,28.1667 119.5,28.8333 119.5,29.5C 114.178,29.0199 108.845,28.6865 103.5,28.5 Z"/></g>
<g><path style="opacity:0.133" fill="#7f7f7f" d="M 188.5,26.5 C 183.637,27.2656 178.637,27.9322 173.5,28.5C 173.611,27.8826 173.944,27.3826 174.5,27C 179.155,26.5008 183.821,26.3342 188.5,26.5 Z"/></g>
<g><path style="opacity:0.157" fill="#787878" d="M 85.5,30.5 C 83.8333,30.5 82.1667,30.5 80.5,30.5C 80.5,29.1667 80.5,27.8333 80.5,26.5C 83.9496,25.7564 85.6162,27.0897 85.5,30.5 Z"/></g>
<g><path style="opacity:0.418" fill="#6d6d6d" d="M 92.5,20.5 C 93.1667,31.1667 93.8333,31.1667 94.5,20.5C 95.4794,23.6248 95.8128,26.9581 95.5,30.5C 96.5,30.5 97.5,30.5 98.5,30.5C 95.9773,31.2537 93.3106,31.9204 90.5,32.5C 88.5815,33.0111 86.9148,32.3444 85.5,30.5C 86.8333,30.5 88.1667,30.5 89.5,30.5C 91.1187,27.4521 92.1187,24.1188 92.5,20.5 Z"/></g>
<g><path style="opacity:1" fill="#f9f9f9" d="M 92.5,20.5 C 93.1667,20.5 93.8333,20.5 94.5,20.5C 93.8333,31.1667 93.1667,31.1667 92.5,20.5 Z"/></g>
<g><path style="opacity:0.043" fill="#656565" d="M 133.5,7.5 C 133.833,7.5 134.167,7.5 134.5,7.5C 134.5,14.8333 134.5,22.1667 134.5,29.5C 135.5,29.5 136.5,29.5 137.5,29.5C 137.5,22.1667 137.5,14.8333 137.5,7.5C 137.833,7.5 138.167,7.5 138.5,7.5C 138.5,14.8333 138.5,22.1667 138.5,29.5C 139.791,29.7373 140.791,29.404 141.5,28.5C 142.496,28.5858 143.329,28.2524 144,27.5C 144.5,20.8417 144.666,14.175 144.5,7.5C 144.833,7.5 145.167,7.5 145.5,7.5C 145.169,14.8635 145.503,22.1968 146.5,29.5C 147.328,25.2044 147.828,20.8711 148,16.5C 148.513,17.5266 149.013,18.5266 149.5,19.5C 148.527,21.9479 148.194,24.6146 148.5,27.5C 149.791,27.7373 150.791,27.404 151.5,26.5C 152.404,27.209 152.737,28.209 152.5,29.5C 154.179,29.7148 155.179,29.0481 155.5,27.5C 156.5,27.5 157.5,27.5 158.5,27.5C 159.334,28.7479 160.667,29.4146 162.5,29.5C 164.045,29.4892 165.378,29.1558 166.5,28.5C 169.041,28.1501 171.374,28.1501 173.5,28.5C 170.949,29.4844 168.282,30.4844 165.5,31.5C 151.869,30.6786 138.369,30.6786 125,31.5C 122.97,31.0463 121.137,30.3796 119.5,29.5C 121.179,29.7148 122.179,29.0481 122.5,27.5C 123.492,27.6716 124.158,27.3382 124.5,26.5C 125.404,27.209 125.737,28.209 125.5,29.5C 126.5,29.5 127.5,29.5 128.5,29.5C 129.5,29.5 130.5,29.5 131.5,29.5C 133.463,22.5762 134.13,15.2428 133.5,7.5 Z"/></g>
<g><path style="opacity:1" fill="#0f0f0f" d="M 138.5,7.5 C 139.5,7.5 140.5,7.5 141.5,7.5C 141.5,14.5 141.5,21.5 141.5,28.5C 140.791,29.404 139.791,29.7373 138.5,29.5C 138.5,22.1667 138.5,14.8333 138.5,7.5 Z"/></g>
<g><path style="opacity:0.999" fill="#fcfcfc" d="M 134.5,7.5 C 135.5,7.5 136.5,7.5 137.5,7.5C 137.5,14.8333 137.5,22.1667 137.5,29.5C 136.5,29.5 135.5,29.5 134.5,29.5C 134.5,22.1667 134.5,14.8333 134.5,7.5 Z"/></g>
</svg>
