<?xml version="1.0" encoding="UTF-8"?>
<!DOCTYPE svg PUBLIC "-//W3C//DTD SVG 1.1//EN" "http://www.w3.org/Graphics/SVG/1.1/DTD/svg11.dtd">
<svg xmlns="http://www.w3.org/2000/svg" version="1.1" width="866px" height="288px" style="shape-rendering:geometricPrecision; text-rendering:geometricPrecision; image-rendering:optimizeQuality; fill-rule:evenodd; clip-rule:evenodd" xmlns:xlink="http://www.w3.org/1999/xlink">
<g><path style="opacity:0.9" fill="#e4e4e4" d="M 490.5,38.5 C 491.5,38.5 492.5,38.5 493.5,38.5C 492.754,42.31 491.754,42.31 490.5,38.5 Z"/></g>
<g><path style="opacity:0.999" fill="#f9f9f9" d="M 560.5,81.5 C 562.067,83.7819 564.067,84.4486 566.5,83.5C 565.388,82.7348 564.721,81.7348 564.5,80.5C 564.811,79.5222 565.478,78.8555 566.5,78.5C 570.336,80.641 574.336,81.141 578.5,80C 579.739,82.7016 579.073,84.8683 576.5,86.5C 574.712,86.2148 573.045,86.5481 571.5,87.5C 572.325,88.3857 573.325,88.719 574.5,88.5C 577.066,88.3444 579.566,88.6777 582,89.5C 584.822,88.4225 587.488,87.0892 590,85.5C 591.351,87.0182 592.851,88.3515 594.5,89.5C 595.919,90.4511 597.585,90.7845 599.5,90.5C 599.5,92.1667 599.5,93.8333 599.5,95.5C 593.911,127.882 588.078,160.215 582,192.5C 574.967,156.503 568.134,120.503 561.5,84.5C 551.833,84.5 542.167,84.5 532.5,84.5C 532.5,134.167 532.5,183.833 532.5,233.5C 539.167,233.5 545.833,233.5 552.5,233.5C 552.5,205.167 552.5,176.833 552.5,148.5C 552.181,143.637 552.514,138.97 553.5,134.5C 559.673,163.701 565.34,193.034 570.5,222.5C 569.833,223.167 569.167,223.833 568.5,224.5C 564.419,228.386 559.752,231.552 554.5,234C 550.209,233.792 546.542,235.125 543.5,238C 538.836,238.315 534.836,239.982 531.5,243C 529.866,243.494 528.199,243.66 526.5,243.5C 527.291,240.583 527.291,237.75 526.5,235C 524.5,234.333 522.5,234.333 520.5,235C 519.471,236.698 517.971,237.532 516,237.5C 512.479,236.37 508.979,236.37 505.5,237.5C 507.242,241.322 506.408,244.322 503,246.5C 499.709,244.518 498.876,241.851 500.5,238.5C 502.382,237.779 502.715,236.779 501.5,235.5C 500.504,235.586 499.671,235.252 499,234.5C 492.533,235.642 486.367,237.809 480.5,241C 461.035,245.392 441.368,248.558 421.5,250.5C 413.542,249.408 405.708,247.742 398,245.5C 394.703,246.658 391.537,247.991 388.5,249.5C 387.5,249.333 386.5,249.167 385.5,249C 381.383,244.741 376.383,243.408 370.5,245C 368.956,245.29 367.623,245.956 366.5,247C 367.941,251.384 370.275,255.217 373.5,258.5C 371.084,260.267 368.417,261.767 365.5,263C 364.181,268.19 362.514,268.524 360.5,264C 362.034,261.101 363.701,258.267 365.5,255.5C 364.253,252.671 362.753,250.005 361,247.5C 360.695,245.443 360.695,243.443 361,241.5C 359.951,240.483 358.784,240.316 357.5,241C 353.269,243.403 348.936,245.57 344.5,247.5C 341.886,246.383 339.719,244.716 338,242.5C 337.5,242.667 337,242.833 336.5,243C 339.577,245.227 340.41,248.06 339,251.5C 345.197,253.343 347.53,257.343 346,263.5C 343.493,265.155 340.659,265.989 337.5,266C 333.753,273.21 328.587,274.376 322,269.5C 321.5,268.5 321,267.5 320.5,266.5C 321.213,264.224 321.713,261.891 322,259.5C 323.907,256.713 325.407,256.88 326.5,260C 325.375,261.963 324.041,263.796 322.5,265.5C 331.009,267.245 336.343,263.912 338.5,255.5C 333.297,255.391 328.297,254.391 323.5,252.5C 325.198,247.108 328.365,242.774 333,239.5C 333.818,236.773 333.652,234.106 332.5,231.5C 329.406,232.623 326.739,231.957 324.5,229.5C 323.081,228.549 321.415,228.216 319.5,228.5C 319.5,225.5 319.5,222.5 319.5,219.5C 319.988,214.133 320.654,208.799 321.5,203.5C 329.807,202.502 338.14,202.169 346.5,202.5C 347.065,211.221 348.065,219.887 349.5,228.5C 364.5,229.833 379.5,229.833 394.5,228.5C 394.5,205.167 394.5,181.833 394.5,158.5C 399.267,158.191 403.934,158.691 408.5,160C 410.815,161.109 412.315,162.943 413,165.5C 413.178,186.573 413.678,207.573 414.5,228.5C 421.982,229.492 429.648,229.825 437.5,229.5C 437.81,226.287 437.477,223.287 436.5,220.5C 436.5,206.833 436.5,193.167 436.5,179.5C 436.556,174.269 435.889,169.269 434.5,164.5C 433.436,158.053 430.103,153.053 424.5,149.5C 430.164,146.526 433.664,141.859 435,135.5C 437.302,121.748 436.968,108.081 434,94.5C 429.815,84.6498 422.315,79.6498 411.5,79.5C 411.833,78.8333 412.167,78.1667 412.5,77.5C 432.101,71.5447 452.101,68.378 472.5,68C 475.859,68.7713 479.192,69.6047 482.5,70.5C 485.866,68.7755 489.2,67.1088 492.5,65.5C 495.781,67.0744 499.114,68.741 502.5,70.5C 505.757,69.4486 509.09,68.7819 512.5,68.5C 512.116,63.2319 509.783,59.0653 505.5,56C 510.021,53.9647 513.688,51.2981 516.5,48C 517.357,48.6891 518.023,49.5224 518.5,50.5C 516.757,52.8221 515.423,55.3221 514.5,58C 515.714,61.5507 517.38,64.884 519.5,68C 518.852,69.4397 518.519,70.9397 518.5,72.5C 523.302,71.8759 527.302,69.7093 530.5,66C 534.934,64.6217 538.434,65.7883 541,69.5C 542.817,68.407 542.65,67.407 540.5,66.5C 539.692,64.5767 539.192,62.5767 539,60.5C 527.197,53.9732 527.697,49.1399 540.5,46C 544.156,38.3779 548.989,37.5446 555,43.5C 556.004,46.9926 555.504,50.1592 553.5,53C 552.035,53.6013 551.035,53.1013 550.5,51.5C 551.248,49.6675 552.248,48.0009 553.5,46.5C 553.167,45.5 552.5,44.8333 551.5,44.5C 545.112,46.2212 541.112,50.2212 539.5,56.5C 544.704,56.4562 549.704,57.4562 554.5,59.5C 552.415,63.9924 549.582,67.9924 546,71.5C 545.182,74.2272 545.348,76.8938 546.5,79.5C 549.904,78.0996 552.904,78.7663 555.5,81.5C 557.199,80.1854 558.865,80.1854 560.5,81.5 Z"/></g>
<g><path style="opacity:0.416" fill="#dedede" d="M 526.5,39.5 C 528.973,39.9473 529.14,40.9473 527,42.5C 526.517,41.552 526.351,40.552 526.5,39.5 Z"/></g>
<g><path style="opacity:0.995" fill="#dbdbdb" d="M 672.5,42.5 C 677.984,42.4809 679.65,44.9809 677.5,50C 676.551,50.6172 675.718,50.4506 675,49.5C 673.589,47.3496 672.755,45.0163 672.5,42.5 Z"/></g>
<g><path style="opacity:0.989" fill="#d4d4d4" d="M 736.5,43.5 C 738.265,42.5386 740.265,42.2053 742.5,42.5C 741.738,48.8146 739.738,49.148 736.5,43.5 Z"/></g>
<g><path style="opacity:0.991" fill="#e4e4e4" d="M 561.5,44.5 C 563.84,45.086 566.007,46.086 568,47.5C 568.325,51.616 569.159,55.616 570.5,59.5C 570.291,60.086 569.957,60.586 569.5,61C 566.833,61.6667 564.167,61.6667 561.5,61C 560.707,59.9148 560.04,58.7481 559.5,57.5C 561.358,55.4759 563.025,53.3092 564.5,51C 563.588,48.7492 562.588,46.5825 561.5,44.5 Z"/></g>
<g><path style="opacity:0.981" fill="#e5e5e5" d="M 764.5,47.5 C 767.034,51.2199 770.034,54.5532 773.5,57.5C 773.167,57.8333 772.833,58.1667 772.5,58.5C 770.194,58.6457 767.861,58.979 765.5,59.5C 764.959,56.2473 763.626,53.414 761.5,51C 762.071,49.4009 763.071,48.2342 764.5,47.5 Z"/></g>
<g><path style="opacity:0.994" fill="#dddddd" d="M 783.5,49.5 C 786.488,49.1547 787.821,50.488 787.5,53.5C 785.762,58.4931 783.762,58.4931 781.5,53.5C 781.752,51.9271 782.418,50.5938 783.5,49.5 Z"/></g>
<g><path style="opacity:0.989" fill="#c8c8c8" d="M 678.5,58.5 C 680.308,59.9179 680.975,61.9179 680.5,64.5C 675.917,63.985 675.251,61.985 678.5,58.5 Z"/></g>
<g><path style="opacity:0.999" fill="#fafafa" d="M 816.5,82.5 C 808.167,83.1667 799.833,83.8333 791.5,84.5C 791.5,134.167 791.5,183.833 791.5,233.5C 808.167,233.5 824.833,233.5 841.5,233.5C 842.491,227.021 842.824,220.354 842.5,213.5C 833.167,213.5 823.833,213.5 814.5,213.5C 814.5,197.833 814.5,182.167 814.5,166.5C 823.167,166.5 831.833,166.5 840.5,166.5C 840.5,160.167 840.5,153.833 840.5,147.5C 832.016,146.507 823.349,146.174 814.5,146.5C 814.5,132.5 814.5,118.5 814.5,104.5C 820.5,104.5 826.5,104.5 832.5,104.5C 832.328,105.492 832.662,106.158 833.5,106.5C 837.507,115.157 843.007,122.824 850,129.5C 853.727,136.284 856.894,143.284 859.5,150.5C 860.048,153.084 861.715,154.084 864.5,153.5C 864.5,154.167 864.833,154.5 865.5,154.5C 865.5,157.833 865.5,161.167 865.5,164.5C 864.167,165.167 864.167,165.833 865.5,166.5C 865.5,180.833 865.5,195.167 865.5,209.5C 860.183,213.656 855.683,218.656 852,224.5C 849.591,226.62 847.091,228.62 844.5,230.5C 843.754,231.736 843.421,233.07 843.5,234.5C 840.15,234.335 836.817,234.502 833.5,235C 824.306,238.285 815.306,241.951 806.5,246C 805,246.167 803.5,246.333 802,246.5C 793.601,244.812 785.434,242.312 777.5,239C 759.343,236.055 741.509,231.888 724,226.5C 722.625,228.937 722.125,231.603 722.5,234.5C 714.648,234.825 706.982,234.492 699.5,233.5C 699.833,233.5 700.167,233.5 700.5,233.5C 707.5,233.5 714.5,233.5 721.5,233.5C 721.511,203.489 721.345,173.489 721,143.5C 731.5,173.167 742,202.833 752.5,232.5C 757.792,233.495 763.125,233.828 768.5,233.5C 768.5,183.833 768.5,134.167 768.5,84.5C 761.833,84.5 755.167,84.5 748.5,84.5C 748.673,113.172 748.839,141.839 749,170.5C 738.932,142.129 728.765,113.795 718.5,85.5C 712.537,84.5041 706.537,84.1707 700.5,84.5C 699.833,131.167 699.167,177.833 698.5,224.5C 693.918,223.817 689.418,222.817 685,221.5C 682.813,221.788 680.646,222.122 678.5,222.5C 677.833,176.5 677.167,130.5 676.5,84.5C 676.5,83.8333 676.5,83.1667 676.5,82.5C 682.814,81.0833 689.147,80.5833 695.5,81C 699.367,76.8882 701.867,72.3882 703,67.5C 705.109,65.5822 707.275,65.2488 709.5,66.5C 709.354,71.1366 710.021,71.4699 711.5,67.5C 711.56,66.9569 711.893,66.6236 712.5,66.5C 714.573,67.4687 716.739,68.1354 719,68.5C 723.894,66.9674 728.728,65.3007 733.5,63.5C 736.552,64.0135 739.552,64.6802 742.5,65.5C 745.304,66.6378 748.304,66.8045 751.5,66C 752.056,65.6174 752.389,65.1174 752.5,64.5C 753.81,62.8523 755.143,61.1856 756.5,59.5C 758.276,61.5378 759.943,63.7045 761.5,66C 764.536,67.5181 767.536,69.0181 770.5,70.5C 774.816,69.3524 779.15,69.3524 783.5,70.5C 786.812,69.3061 790.145,68.4727 793.5,68C 796.542,70.8747 800.209,72.208 804.5,72C 806.286,72.7845 807.786,73.9512 809,75.5C 810.133,73.7888 811.633,73.2888 813.5,74C 814.189,76.9496 815.189,79.7829 816.5,82.5 Z"/></g>
<g><path style="opacity:0.969" fill="#c8c8c8" d="M 778.5,62.5 C 780.76,63.2376 780.927,64.2376 779,65.5C 777.272,64.6477 777.105,63.6477 778.5,62.5 Z"/></g>
<g><path style="opacity:1" fill="#f9f9f9" d="M 206.5,77.5 C 209.438,78.0703 211.772,78.7369 213.5,79.5C 206.416,78.8745 199.75,79.5411 193.5,81.5C 193.679,89.4077 194.679,97.0744 196.5,104.5C 197.423,108.064 197.756,111.731 197.5,115.5C 197.444,120.731 198.111,125.731 199.5,130.5C 201.726,143.749 203.393,157.083 204.5,170.5C 204.444,175.731 205.111,180.731 206.5,185.5C 208.413,199.805 210.08,214.138 211.5,228.5C 219.167,228.5 226.833,228.5 234.5,228.5C 235.889,223.731 236.556,218.731 236.5,213.5C 238.466,196.741 240.799,180.074 243.5,163.5C 244.972,159.081 245.638,154.414 245.5,149.5C 245.609,142.327 246.609,136.66 248.5,132.5C 248.335,135.85 248.502,139.183 249,142.5C 249.383,143.056 249.883,143.389 250.5,143.5C 250.5,144.5 250.5,145.5 250.5,146.5C 250.444,151.731 251.111,156.731 252.5,161.5C 252.5,161.833 252.5,162.167 252.5,162.5C 252.28,167.1 252.946,171.433 254.5,175.5C 256.663,190.803 258.663,206.136 260.5,221.5C 261.04,225.269 259.706,227.936 256.5,229.5C 255.078,229.709 253.745,230.209 252.5,231C 250.854,234.31 248.52,236.977 245.5,239C 242.833,239.333 240.167,239.667 237.5,240C 229.543,244.828 220.876,247.328 211.5,247.5C 209.252,250.328 207.252,253.328 205.5,256.5C 203.146,257.06 200.813,257.727 198.5,258.5C 197.833,259.833 196.833,260.833 195.5,261.5C 189.843,259.668 184.843,260.835 180.5,265C 174.151,265.275 167.818,265.275 161.5,265C 158.667,266.5 156.5,268.667 155,271.5C 151.701,266.595 147.201,263.262 141.5,261.5C 139.689,262.739 137.689,263.406 135.5,263.5C 130.141,261.502 125.474,262.502 121.5,266.5C 116.919,263.811 111.919,262.311 106.5,262C 105.953,261.075 105.287,260.242 104.5,259.5C 103.15,260.95 101.484,261.617 99.5,261.5C 99.628,259.345 99.128,257.345 98,255.5C 95,252.5 92,249.5 89,246.5C 82,236.5 75,226.5 68,216.5C 63.2788,213.112 59.2788,209.112 56,204.5C 50.5257,191.895 45.3591,179.228 40.5,166.5C 40.6882,164.897 40.1882,163.563 39,162.5C 38.5001,176.496 38.3334,190.496 38.5,204.5C 37.8333,204.5 37.5,204.167 37.5,203.5C 37.5,175.167 37.5,146.833 37.5,118.5C 41.1667,118.5 44.8333,118.5 48.5,118.5C 48.5,114.5 48.5,110.5 48.5,106.5C 36.011,105.505 23.3443,105.171 10.5,105.5C 10.1818,110.032 10.5151,114.366 11.5,118.5C 15.5957,118.994 18.929,119.994 21.5,121.5C 21.8128,125.042 21.4794,128.375 20.5,131.5C 15.9171,131.275 11.2504,131.108 6.5,131C 3.60614,128.091 2.7728,124.591 4,120.5C 5.5843,119.139 7.41764,118.472 9.5,118.5C 9.5,114.833 9.5,111.167 9.5,107.5C 6.16667,107.833 2.83333,108.167 -0.5,108.5C -0.5,103.5 -0.5,98.5 -0.5,93.5C 5.71913,94.0816 11.8858,93.4149 18,91.5C 23.393,92.1862 28.5597,93.6862 33.5,96C 42.205,96.1418 50.8717,96.3085 59.5,96.5C 63.2005,96.2111 66.7005,95.2111 70,93.5C 72.1542,94.2741 74.3208,94.9408 76.5,95.5C 78.6345,97.0334 81.1345,97.7001 84,97.5C 85.8333,97.3333 87.6667,97.1667 89.5,97C 90.2524,96.3292 90.5858,95.4959 90.5,94.5C 91.2186,92.2362 91.552,89.9029 91.5,87.5C 94.5406,87.4056 96.2072,88.9056 96.5,92C 97.8989,92.5946 99.2322,92.4279 100.5,91.5C 102.381,93.7337 104.715,95.067 107.5,95.5C 107.579,94.0695 107.246,92.7362 106.5,91.5C 108.353,90.2404 110.186,90.2404 112,91.5C 112.87,90.8921 113.37,90.0588 113.5,89C 111.294,87.7498 109.961,85.9165 109.5,83.5C 113.605,83.7662 117.605,83.2662 121.5,82C 123.708,78.5367 124.041,74.87 122.5,71C 122.613,69.7202 123.28,68.8869 124.5,68.5C 126.926,72.0936 128.593,76.0936 129.5,80.5C 129.62,81.5862 130.287,82.2528 131.5,82.5C 132.416,82.4573 133.083,82.1239 133.5,81.5C 138.961,79.8532 144.128,77.5199 149,74.5C 151.104,76.279 153.438,77.6123 156,78.5C 162.238,75.771 168.738,74.9377 175.5,76C 177.344,77.1821 179.177,78.3488 181,79.5C 181.5,79.1667 182,78.8333 182.5,78.5C 180.87,75.0222 179.87,71.3555 179.5,67.5C 179.342,65.6814 180.009,64.3481 181.5,63.5C 183.637,64.7381 184.971,66.5714 185.5,69C 191.331,68.915 195.664,71.415 198.5,76.5C 201.277,76.7681 203.943,77.1015 206.5,77.5 Z M 188.5,75.5 C 190.465,75.9483 190.798,76.9483 189.5,78.5C 188.614,77.675 188.281,76.675 188.5,75.5 Z M 43.5,134.5 C 41.7376,135.262 40.7376,136.596 40.5,138.5C 39.5386,136.735 39.2053,134.735 39.5,132.5C 40.9305,132.579 42.2638,132.246 43.5,131.5C 44.087,132.233 44.087,133.233 43.5,134.5 Z"/></g>
<g><path style="opacity:0.847" fill="#999999" d="M 752.5,64.5 C 752.389,65.1174 752.056,65.6174 751.5,66C 748.304,66.8045 745.304,66.6378 742.5,65.5C 745.902,65.6576 749.236,65.3242 752.5,64.5 Z"/></g>
<g><path style="opacity:0.992" fill="#e0e0e0" d="M 559.5,65.5 C 561.722,65.5587 562.722,66.7253 562.5,69C 561.763,72.8579 560.096,73.3579 557.5,70.5C 558.456,68.9246 559.123,67.258 559.5,65.5 Z"/></g>
<g><path style="opacity:0.302" fill="#464646" d="M 709.5,66.5 C 710.167,66.8333 710.833,67.1667 711.5,67.5C 710.021,71.4699 709.354,71.1366 709.5,66.5 Z"/></g>
<g><path style="opacity:0.988" fill="#cccccc" d="M 85.5,68.5 C 87.1765,69.1834 87.8432,70.5168 87.5,72.5C 86.5,72.5 85.5,72.5 84.5,72.5C 84.4326,71.0413 84.7659,69.7079 85.5,68.5 Z"/></g>
<g><path style="opacity:0.985" fill="#d0d0d0" d="M 402.5,68.5 C 403.496,68.4142 404.329,68.7476 405,69.5C 405.494,71.1341 405.66,72.8008 405.5,74.5C 401.489,74.1649 400.489,72.1649 402.5,68.5 Z"/></g>
<g><path style="opacity:0.929" fill="#a8a8a8" d="M 220.5,69.5 C 222.625,70.3676 222.791,71.3676 221,72.5C 219.317,71.8235 219.15,70.8235 220.5,69.5 Z"/></g>
<g><path style="opacity:0.97" fill="#cfcfcf" d="M 115.5,73.5 C 118.927,74.5955 118.927,76.2622 115.5,78.5C 114.334,76.8327 114.334,75.166 115.5,73.5 Z"/></g>
<g><path style="opacity:0.91" fill="#cfcfcf" d="M 569.5,69.5 C 572.858,70.5269 574.525,72.8602 574.5,76.5C 567.606,77.6223 565.939,75.289 569.5,69.5 Z"/></g>
<g><path style="opacity:0.792" fill="#989898" d="M 648.5,76.5 C 649.922,76.7086 651.255,77.2086 652.5,78C 650.537,78.8442 649.204,78.3442 648.5,76.5 Z"/></g>
<g><path style="opacity:0.951" fill="#b5b5b5" d="M 261.5,101.5 C 261.5,102.833 261.5,104.167 261.5,105.5C 262.5,105.5 263.5,105.5 264.5,105.5C 263.791,106.404 262.791,106.737 261.5,106.5C 261.5,107.833 261.5,109.167 261.5,110.5C 259.773,100.356 258.44,90.0222 257.5,79.5C 251.167,79.5 244.833,79.5 238.5,79.5C 238.135,86.7237 237.135,93.7237 235.5,100.5C 235.5,99.8333 235.167,99.5 234.5,99.5C 234.922,92.1287 236.256,84.962 238.5,78C 244.833,77.6667 251.167,77.3333 257.5,77C 260.905,72.3012 264.239,72.4679 267.5,77.5C 264.633,78.917 261.633,79.7503 258.5,80C 259.915,87.0705 260.915,94.2371 261.5,101.5 Z"/></g>
<g><path style="opacity:0.914" fill="#b2b2b2" d="M 302.5,81.5 C 301.833,80.8333 301.167,80.1667 300.5,79.5C 293.833,79.5 287.167,79.5 280.5,79.5C 280.498,85.523 280.165,91.523 279.5,97.5C 278.539,95.7354 278.205,93.7354 278.5,91.5C 278.085,86.7938 278.752,82.2938 280.5,78C 287.826,77.5003 295.159,77.3337 302.5,77.5C 302.5,78.8333 302.5,80.1667 302.5,81.5 Z"/></g>
<g><path style="opacity:0.98" fill="#c2c2c2" d="M 89.5,78.5 C 92.6741,78.9522 93.0075,79.9522 90.5,81.5C 89.6143,80.675 89.281,79.675 89.5,78.5 Z"/></g>
<g><path style="opacity:0.584" fill="#f5f5f5" d="M 106.5,79.5 C 108.337,79.6395 108.67,80.3061 107.5,81.5C 106.702,81.0431 106.369,80.3764 106.5,79.5 Z"/></g>
<g><path style="opacity:1" fill="#040404" d="M 213.5,79.5 C 214.373,86.2795 215.373,92.9462 216.5,99.5C 218.553,124.534 220.886,149.534 223.5,174.5C 223.18,177.898 223.513,181.232 224.5,184.5C 225.429,183.311 225.762,181.978 225.5,180.5C 228.997,153.856 232.331,127.189 235.5,100.5C 237.135,93.7237 238.135,86.7237 238.5,79.5C 244.833,79.5 251.167,79.5 257.5,79.5C 258.44,90.0222 259.773,100.356 261.5,110.5C 263.875,131.538 266.541,152.538 269.5,173.5C 269.11,177.394 269.777,181.06 271.5,184.5C 272.487,181.232 272.82,177.898 272.5,174.5C 274.434,150.825 276.434,127.158 278.5,103.5C 279.461,101.735 279.795,99.7354 279.5,97.5C 280.165,91.523 280.498,85.523 280.5,79.5C 287.167,79.5 293.833,79.5 300.5,79.5C 299.751,87.8263 299.084,96.1597 298.5,104.5C 293.344,143.079 289.011,181.746 285.5,220.5C 284.527,222.948 284.194,225.615 284.5,228.5C 276.833,228.5 269.167,228.5 261.5,228.5C 261.802,225.941 261.468,223.607 260.5,221.5C 258.663,206.136 256.663,190.803 254.5,175.5C 254.376,170.951 253.709,166.618 252.5,162.5C 252.5,162.167 252.5,161.833 252.5,161.5C 252.556,156.269 251.889,151.269 250.5,146.5C 250.5,145.5 250.5,144.5 250.5,143.5C 250.192,139.64 249.525,135.974 248.5,132.5C 246.609,136.66 245.609,142.327 245.5,149.5C 244.028,153.919 243.362,158.586 243.5,163.5C 240.799,180.074 238.466,196.741 236.5,213.5C 235.111,218.269 234.444,223.269 234.5,228.5C 226.833,228.5 219.167,228.5 211.5,228.5C 210.08,214.138 208.413,199.805 206.5,185.5C 206.556,180.269 205.889,175.269 204.5,170.5C 203.393,157.083 201.726,143.749 199.5,130.5C 199.698,125.25 199.031,120.25 197.5,115.5C 197.756,111.731 197.423,108.064 196.5,104.5C 196.134,96.6154 195.134,88.9487 193.5,81.5C 199.75,79.5411 206.416,78.8745 213.5,79.5 Z"/></g>
<g><path style="opacity:1" fill="#040404" d="M 349.5,88.5 C 353.704,117.518 358.037,146.518 362.5,175.5C 362.198,179.79 362.864,183.79 364.5,187.5C 366.384,198.802 368.05,210.135 369.5,221.5C 369.993,223.806 370.326,226.139 370.5,228.5C 363.5,228.5 356.5,228.5 349.5,228.5C 348.065,219.887 347.065,211.221 346.5,202.5C 338.14,202.169 329.807,202.502 321.5,203.5C 320.654,208.799 319.988,214.133 319.5,219.5C 318.523,222.287 318.19,225.287 318.5,228.5C 311.137,228.831 303.803,228.497 296.5,227.5C 297.445,223.552 298.112,219.552 298.5,215.5C 299.972,211.081 300.638,206.414 300.5,201.5C 303.409,182.732 306.076,164.065 308.5,145.5C 310.054,141.433 310.72,137.1 310.5,132.5C 311.766,122.176 313.1,111.842 314.5,101.5C 316.304,94.4108 317.304,87.0774 317.5,79.5C 327.506,79.3335 337.506,79.5002 347.5,80C 348.128,82.9386 348.795,85.7719 349.5,88.5 Z"/></g>
<g><path style="opacity:1" fill="#060606" d="M 411.5,79.5 C 422.315,79.6498 429.815,84.6498 434,94.5C 436.968,108.081 437.302,121.748 435,135.5C 433.664,141.859 430.164,146.526 424.5,149.5C 430.103,153.053 433.436,158.053 434.5,164.5C 434.302,169.75 434.969,174.75 436.5,179.5C 436.5,193.167 436.5,206.833 436.5,220.5C 436.5,223.167 436.5,225.833 436.5,228.5C 429.167,228.5 421.833,228.5 414.5,228.5C 413.678,207.573 413.178,186.573 413,165.5C 412.315,162.943 410.815,161.109 408.5,160C 403.934,158.691 399.267,158.191 394.5,158.5C 394.5,181.833 394.5,205.167 394.5,228.5C 386.833,228.5 379.167,228.5 371.5,228.5C 371.5,178.833 371.5,129.167 371.5,79.5C 384.833,79.5 398.167,79.5 411.5,79.5 Z"/></g>
<g><path style="opacity:0.137" fill="#6f6f6f" d="M 129.5,80.5 C 130.708,81.2341 132.041,81.5674 133.5,81.5C 133.083,82.1239 132.416,82.4573 131.5,82.5C 130.287,82.2528 129.62,81.5862 129.5,80.5 Z"/></g>
<g><path style="opacity:1" fill="#fafafa" d="M 368.5,88.5 C 369.117,88.3893 369.617,88.056 370,87.5C 370.831,132.335 370.665,177.002 369.5,221.5C 368.05,210.135 366.384,198.802 364.5,187.5C 364.283,183.295 363.617,179.295 362.5,175.5C 358.037,146.518 353.704,117.518 349.5,88.5C 349.263,87.209 349.596,86.209 350.5,85.5C 353.744,84.2522 356.744,82.5855 359.5,80.5C 361,80.4528 362,81.1195 362.5,82.5C 359.888,88.5579 361.888,90.5579 368.5,88.5 Z"/></g>
<g><path style="opacity:0.063" fill="#404040" d="M 564.5,80.5 C 564.721,81.7348 565.388,82.7348 566.5,83.5C 564.067,84.4486 562.067,83.7819 560.5,81.5C 561.959,81.5674 563.292,81.2341 564.5,80.5 Z"/></g>
<g><path style="opacity:0.986" fill="#c1c1c1" d="M 83.5,81.5 C 89.5843,84.3031 89.5843,85.4698 83.5,85C 82.3157,83.8545 82.3157,82.6879 83.5,81.5 Z"/></g>
<g><path style="opacity:0.999" fill="#030303" d="M 599.5,95.5 C 600.903,92.0915 601.57,88.4248 601.5,84.5C 611.167,84.5 620.833,84.5 630.5,84.5C 630.5,134.167 630.5,183.833 630.5,233.5C 623.833,233.5 617.167,233.5 610.5,233.5C 610.5,211.5 610.5,189.5 610.5,167.5C 610.5,159.5 610.5,151.5 610.5,143.5C 611.65,138.684 611.816,133.684 611,128.5C 609.991,130.025 609.491,131.692 609.5,133.5C 602.983,166.419 596.983,199.419 591.5,232.5C 585.167,232.5 578.833,232.5 572.5,232.5C 572.451,228.922 571.785,225.589 570.5,222.5C 565.34,193.034 559.673,163.701 553.5,134.5C 553.162,132.146 552.662,129.813 552,127.5C 551.179,134.679 551.345,141.679 552.5,148.5C 552.5,176.833 552.5,205.167 552.5,233.5C 545.833,233.5 539.167,233.5 532.5,233.5C 532.5,183.833 532.5,134.167 532.5,84.5C 542.167,84.5 551.833,84.5 561.5,84.5C 568.134,120.503 574.967,156.503 582,192.5C 588.078,160.215 593.911,127.882 599.5,95.5 Z"/></g>
<g><path style="opacity:0.999" fill="#000000" d="M 676.5,84.5 C 676.5,134.167 676.5,183.833 676.5,233.5C 669.167,233.5 661.833,233.5 654.5,233.5C 654.5,183.833 654.5,134.167 654.5,84.5C 661.833,84.5 669.167,84.5 676.5,84.5 Z"/></g>
<g><path style="opacity:1" fill="#949494" d="M 676.5,84.5 C 677.167,130.5 677.833,176.5 678.5,222.5C 678.815,226.371 678.482,230.038 677.5,233.5C 677.167,233.5 676.833,233.5 676.5,233.5C 676.5,183.833 676.5,134.167 676.5,84.5 Z"/></g>
<g><path style="opacity:1" fill="#030303" d="M 700.5,84.5 C 706.537,84.1707 712.537,84.5041 718.5,85.5C 728.765,113.795 738.932,142.129 749,170.5C 748.839,141.839 748.673,113.172 748.5,84.5C 755.167,84.5 761.833,84.5 768.5,84.5C 768.5,134.167 768.5,183.833 768.5,233.5C 763.125,233.828 757.792,233.495 752.5,232.5C 742,202.833 731.5,173.167 721,143.5C 721.345,173.489 721.511,203.489 721.5,233.5C 714.5,233.5 707.5,233.5 700.5,233.5C 700.5,183.833 700.5,134.167 700.5,84.5 Z"/></g>
<g><path style="opacity:0.999" fill="#020202" d="M 791.5,84.5 C 808.167,84.5 824.833,84.5 841.5,84.5C 841.5,90.8333 841.5,97.1667 841.5,103.5C 832.5,103.5 823.5,103.5 814.5,103.5C 813.504,117.99 813.171,132.657 813.5,147.5C 822.167,147.5 830.833,147.5 839.5,147.5C 839.5,153.5 839.5,159.5 839.5,165.5C 830.983,165.174 822.65,165.507 814.5,166.5C 814.5,182.167 814.5,197.833 814.5,213.5C 823.318,214.493 832.318,214.827 841.5,214.5C 841.5,220.833 841.5,227.167 841.5,233.5C 824.833,233.5 808.167,233.5 791.5,233.5C 791.5,183.833 791.5,134.167 791.5,84.5 Z"/></g>
<g><path style="opacity:0.818" fill="#a8a8a8" d="M 816.5,82.5 C 825.192,82.1686 833.859,82.502 842.5,83.5C 843.626,89.7818 843.793,96.1151 843,102.5C 842.722,103.416 842.222,104.082 841.5,104.5C 838.5,104.5 835.5,104.5 832.5,104.5C 826.5,104.5 820.5,104.5 814.5,104.5C 814.5,104.167 814.5,103.833 814.5,103.5C 823.5,103.5 832.5,103.5 841.5,103.5C 841.5,97.1667 841.5,90.8333 841.5,84.5C 824.833,84.5 808.167,84.5 791.5,84.5C 799.833,83.8333 808.167,83.1667 816.5,82.5 Z"/></g>
<g><path style="opacity:0.971" fill="#bababa" d="M 641.5,91.5 C 638.375,92.4794 635.042,92.8128 631.5,92.5C 631.168,136.003 631.501,179.337 632.5,222.5C 631.979,226.481 631.646,230.481 631.5,234.5C 624.159,234.666 616.826,234.5 609.5,234C 608.536,229.934 608.203,225.767 608.5,221.5C 609.167,203.5 609.833,185.5 610.5,167.5C 610.5,189.5 610.5,211.5 610.5,233.5C 617.167,233.5 623.833,233.5 630.5,233.5C 630.5,183.833 630.5,134.167 630.5,84.5C 620.833,84.5 611.167,84.5 601.5,84.5C 601.57,88.4248 600.903,92.0915 599.5,95.5C 599.5,93.8333 599.5,92.1667 599.5,90.5C 597.585,90.7845 595.919,90.4511 594.5,89.5C 596.167,89.5 597.833,89.5 599.5,89.5C 599.674,87.139 600.007,84.8056 600.5,82.5C 610.833,82.5 621.167,82.5 631.5,82.5C 631.963,85.4824 632.296,88.4824 632.5,91.5C 635.5,91.5 638.5,91.5 641.5,91.5 Z"/></g>
<g><path style="opacity:0.925" fill="#a3a3a3" d="M 206.5,77.5 C 209.5,77.5 212.5,77.5 215.5,77.5C 215.671,82.196 216.171,86.8627 217,91.5C 217.71,92.9733 218.876,93.6399 220.5,93.5C 219.432,94.4345 218.099,94.7678 216.5,94.5C 216.5,96.1667 216.5,97.8333 216.5,99.5C 215.373,92.9462 214.373,86.2795 213.5,79.5C 211.772,78.7369 209.438,78.0703 206.5,77.5 Z"/></g>
<g><path style="opacity:0.02" fill="#171717" d="M 576.5,86.5 C 575.833,87.1667 575.167,87.8333 574.5,88.5C 573.325,88.719 572.325,88.3857 571.5,87.5C 573.045,86.5481 574.712,86.2148 576.5,86.5 Z"/></g>
<g><path style="opacity:0.999" fill="#a8a8a8" d="M 700.5,84.5 C 700.5,134.167 700.5,183.833 700.5,233.5C 700.167,233.5 699.833,233.5 699.5,233.5C 698.523,230.713 698.19,227.713 698.5,224.5C 699.167,177.833 699.833,131.167 700.5,84.5 Z"/></g>
<g><path style="opacity:1" fill="#a6a6a6" d="M 193.5,81.5 C 195.134,88.9487 196.134,96.6154 196.5,104.5C 194.679,97.0744 193.679,89.4077 193.5,81.5 Z"/></g>
<g><path style="opacity:0.995" fill="#e3e3e3" d="M 229.5,95.5 C 225.686,95.3491 224.019,93.3491 224.5,89.5C 224.783,88.7109 225.283,88.0442 226,87.5C 228.698,88.6983 230.531,90.6983 231.5,93.5C 231.145,94.5223 230.478,95.189 229.5,95.5 Z"/></g>
<g><path style="opacity:0.898" fill="#9e9e9e" d="M 350.5,85.5 C 349.596,86.209 349.263,87.209 349.5,88.5C 348.795,85.7719 348.128,82.9386 347.5,80C 337.506,79.5002 327.506,79.3335 317.5,79.5C 317.304,87.0774 316.304,94.4108 314.5,101.5C 313.209,101.737 312.209,101.404 311.5,100.5C 312.117,100.389 312.617,100.056 313,99.5C 314.541,93.2543 315.541,86.921 316,80.5C 316.308,79.6919 316.808,79.0253 317.5,78.5C 328.154,77.2134 338.821,77.2134 349.5,78.5C 349.674,80.861 350.007,83.1944 350.5,85.5 Z"/></g>
<g><path style="opacity:1" fill="#fefefe" d="M 652.5,224.5 C 645.784,224.132 639.117,223.465 632.5,222.5C 631.501,179.337 631.168,136.003 631.5,92.5C 635.042,92.8128 638.375,92.4794 641.5,91.5C 643.5,91.5 645.5,91.5 647.5,91.5C 649.467,91.7394 651.301,91.4061 653,90.5C 653.831,135.335 653.665,180.002 652.5,224.5 Z"/></g>
<g><path style="opacity:0.937" fill="#999999" d="M 300.5,79.5 C 301.167,80.1667 301.833,80.8333 302.5,81.5C 301.835,87.477 301.502,93.477 301.5,99.5C 301.433,100.959 301.766,102.292 302.5,103.5C 301.833,103.5 301.5,103.833 301.5,104.5C 300.732,103.737 300.232,102.737 300,101.5C 299.768,102.737 299.268,103.737 298.5,104.5C 299.084,96.1597 299.751,87.8263 300.5,79.5 Z"/></g>
<g><path style="opacity:0.058" fill="#1c1c1c" d="M 224.5,89.5 C 224.019,93.3491 225.686,95.3491 229.5,95.5C 229.167,96.1667 228.833,96.8333 228.5,97.5C 227.127,97.6567 225.793,97.49 224.5,97C 224.026,95.2714 223.026,94.1047 221.5,93.5C 222.659,92.2597 223.659,90.9264 224.5,89.5 Z"/></g>
<g><path style="opacity:1" fill="#f6f6f6" d="M 220.5,93.5 C 220.833,93.5 221.167,93.5 221.5,93.5C 223.026,94.1047 224.026,95.2714 224.5,97C 225.793,97.49 227.127,97.6567 228.5,97.5C 229.167,97.5 229.5,97.8333 229.5,98.5C 229.5,99.5 229.5,100.5 229.5,101.5C 228.5,101.5 227.5,101.5 226.5,101.5C 226.189,100.522 225.522,99.8555 224.5,99.5C 219.944,104.337 220.944,106.837 227.5,107C 229.037,105.89 229.703,104.39 229.5,102.5C 232.285,103.084 233.952,102.084 234.5,99.5C 235.167,99.5 235.5,99.8333 235.5,100.5C 232.331,127.189 228.997,153.856 225.5,180.5C 224.833,178.5 224.167,176.5 223.5,174.5C 220.886,149.534 218.553,124.534 216.5,99.5C 216.5,97.8333 216.5,96.1667 216.5,94.5C 218.099,94.7678 219.432,94.4345 220.5,93.5 Z"/></g>
<g><path style="opacity:1" fill="#bbbbbb" d="M 412.5,77.5 C 412.167,78.1667 411.833,78.8333 411.5,79.5C 398.167,79.5 384.833,79.5 371.5,79.5C 371.5,129.167 371.5,178.833 371.5,228.5C 379.167,228.5 386.833,228.5 394.5,228.5C 379.5,229.833 364.5,229.833 349.5,228.5C 356.5,228.5 363.5,228.5 370.5,228.5C 370.326,226.139 369.993,223.806 369.5,221.5C 370.665,177.002 370.831,132.335 370,87.5C 369.617,88.056 369.117,88.3893 368.5,88.5C 369.1,85.6681 369.767,82.8348 370.5,80C 370.905,79.0546 371.572,78.3879 372.5,78C 376.563,77.9616 380.397,77.1283 384,75.5C 384.75,76.1258 385.584,76.6258 386.5,77C 395.16,77.4998 403.827,77.6664 412.5,77.5 Z"/></g>
<g><path style="opacity:1" fill="#a5a5a5" d="M 676.5,82.5 C 676.5,83.1667 676.5,83.8333 676.5,84.5C 669.167,84.5 661.833,84.5 654.5,84.5C 654.5,134.167 654.5,183.833 654.5,233.5C 661.833,233.5 669.167,233.5 676.5,233.5C 676.833,233.5 677.167,233.5 677.5,233.5C 669.677,234.656 661.677,234.823 653.5,234C 652.549,230.943 652.216,227.777 652.5,224.5C 653.665,180.002 653.831,135.335 653,90.5C 651.301,91.4061 649.467,91.7394 647.5,91.5C 648.878,90.7656 650.378,90.0989 652,89.5C 652.497,87.1902 652.663,84.8568 652.5,82.5C 660.5,82.5 668.5,82.5 676.5,82.5 Z"/></g>
<g><path style="opacity:0.694" fill="#b3b3b3" d="M 90.5,94.5 C 90.5858,95.4959 90.2524,96.3292 89.5,97C 87.6667,97.1667 85.8333,97.3333 84,97.5C 81.1345,97.7001 78.6345,97.0334 76.5,95.5C 79.157,95.8297 81.8236,96.163 84.5,96.5C 86.8405,96.6369 88.8405,95.9702 90.5,94.5 Z"/></g>
<g><path style="opacity:1" fill="#f9f9f9" d="M 394.5,96.5 C 410.634,94.3767 416.967,101.377 413.5,117.5C 413.333,122.167 413.167,126.833 413,131.5C 412.681,134.973 411.181,137.806 408.5,140C 403.845,140.499 399.179,140.666 394.5,140.5C 394.5,125.833 394.5,111.167 394.5,96.5 Z"/></g>
<g><path style="opacity:1" fill="#7e7e7e" d="M 278.5,91.5 C 278.205,93.7354 278.539,95.7354 279.5,97.5C 279.795,99.7354 279.461,101.735 278.5,103.5C 278.672,102.508 278.338,101.842 277.5,101.5C 277.187,97.9581 277.521,94.6248 278.5,91.5 Z"/></g>
<g><path style="opacity:1" fill="#171717" d="M 226.5,101.5 C 227.209,102.404 228.209,102.737 229.5,102.5C 229.703,104.39 229.037,105.89 227.5,107C 220.944,106.837 219.944,104.337 224.5,99.5C 225.522,99.8555 226.189,100.522 226.5,101.5 Z"/></g>
<g><path style="opacity:0.939" fill="#696969" d="M 229.5,98.5 C 230.158,99.3984 230.824,100.398 231.5,101.5C 232.518,100.807 233.518,100.141 234.5,99.5C 233.952,102.084 232.285,103.084 229.5,102.5C 228.209,102.737 227.209,102.404 226.5,101.5C 227.5,101.5 228.5,101.5 229.5,101.5C 229.5,100.5 229.5,99.5 229.5,98.5 Z"/></g>
<g><path style="opacity:0.648" fill="#101010" d="M 261.5,101.5 C 262.156,102.278 262.989,102.944 264,103.5C 268.545,102.011 273.045,101.344 277.5,101.5C 277.539,104.089 276.539,106.089 274.5,107.5C 273.5,107.5 272.5,107.5 271.5,107.5C 271.768,105.901 271.434,104.568 270.5,103.5C 268.102,103.259 266.102,103.926 264.5,105.5C 263.5,105.5 262.5,105.5 261.5,105.5C 261.5,104.167 261.5,102.833 261.5,101.5 Z"/></g>
<g><path style="opacity:1" fill="#f6f6f6" d="M 301.5,99.5 C 302.167,99.5 302.833,99.5 303.5,99.5C 304.868,100.306 306.201,101.306 307.5,102.5C 308.386,101.675 308.719,100.675 308.5,99.5C 309.791,99.2627 310.791,99.596 311.5,100.5C 312.209,101.404 313.209,101.737 314.5,101.5C 313.1,111.842 311.766,122.176 310.5,132.5C 308.946,136.567 308.28,140.9 308.5,145.5C 306.076,164.065 303.409,182.732 300.5,201.5C 299.313,204.946 298.646,208.613 298.5,212.5C 297.833,214.5 297.167,216.5 296.5,218.5C 295.833,218.5 295.167,218.5 294.5,218.5C 293.167,219.167 291.833,219.833 290.5,220.5C 288.525,220.822 286.858,220.822 285.5,220.5C 289.011,181.746 293.344,143.079 298.5,104.5C 299.268,103.737 299.768,102.737 300,101.5C 300.232,102.737 300.732,103.737 301.5,104.5C 302.882,106.898 304.549,107.065 306.5,105C 305.255,104.209 303.922,103.709 302.5,103.5C 301.766,102.292 301.433,100.959 301.5,99.5 Z"/></g>
<g><path style="opacity:1" fill="#8a8a8a" d="M 303.5,99.5 C 305.167,99.5 306.833,99.5 308.5,99.5C 308.719,100.675 308.386,101.675 307.5,102.5C 306.201,101.306 304.868,100.306 303.5,99.5 Z"/></g>
<g><path style="opacity:1" fill="#f6f6f6" d="M 277.5,101.5 C 278.338,101.842 278.672,102.508 278.5,103.5C 276.434,127.158 274.434,150.825 272.5,174.5C 271.691,176.292 271.191,178.292 271,180.5C 270.814,177.964 270.314,175.631 269.5,173.5C 266.541,152.538 263.875,131.538 261.5,110.5C 261.5,109.167 261.5,107.833 261.5,106.5C 262.791,106.737 263.791,106.404 264.5,105.5C 266.102,103.926 268.102,103.259 270.5,103.5C 270.5,105.167 270.5,106.833 270.5,108.5C 272.099,108.768 273.432,108.434 274.5,107.5C 276.539,106.089 277.539,104.089 277.5,101.5 Z"/></g>
<g><path style="opacity:1" fill="#242424" d="M 302.5,103.5 C 303.922,103.709 305.255,104.209 306.5,105C 304.549,107.065 302.882,106.898 301.5,104.5C 301.5,103.833 301.833,103.5 302.5,103.5 Z"/></g>
<g><path style="opacity:0.012" fill="#595959" d="M 832.5,104.5 C 835.5,104.5 838.5,104.5 841.5,104.5C 838.833,105.167 836.167,105.833 833.5,106.5C 832.662,106.158 832.328,105.492 832.5,104.5 Z"/></g>
<g><path style="opacity:1" fill="#5d5d5d" d="M 48.5,106.5 C 36.1667,106.5 23.8333,106.5 11.5,106.5C 11.5,110.5 11.5,114.5 11.5,118.5C 10.5151,114.366 10.1818,110.032 10.5,105.5C 23.3443,105.171 36.011,105.505 48.5,106.5 Z"/></g>
<g><path style="opacity:1" fill="#070707" d="M 144.5,183.5 C 144.5,178.5 144.5,173.5 144.5,168.5C 148.833,168.5 153.167,168.5 157.5,168.5C 157.334,173.511 157.501,178.511 158,183.5C 157.845,190.355 161.011,193.189 167.5,192C 168,191.5 168.5,191 169,190.5C 172.299,180.186 170.633,170.852 164,162.5C 154.639,155.424 147.973,146.424 144,135.5C 142.403,126.646 143.736,118.313 148,110.5C 156.911,103.558 166.411,102.724 176.5,108C 180.087,111.005 182.254,114.838 183,119.5C 183.499,125.491 183.666,131.491 183.5,137.5C 179.167,137.5 174.833,137.5 170.5,137.5C 170.666,132.489 170.499,127.489 170,122.5C 167.434,117.242 163.767,116.242 159,119.5C 156.735,125.782 157.402,131.782 161,137.5C 169.859,145.685 177.192,155.019 183,165.5C 186.647,176.413 185.98,187.08 181,197.5C 178.519,201.314 175.019,203.481 170.5,204C 154.004,206.998 145.337,200.164 144.5,183.5 Z"/></g>
<g><path style="opacity:1" fill="#090909" d="M 455.5,104.5 C 470.303,102.642 479.136,108.975 482,123.5C 482.667,143.833 482.667,164.167 482,184.5C 477.567,202.989 466.4,208.822 448.5,202C 442.693,197.281 439.526,191.115 439,183.5C 438.333,163.167 438.333,142.833 439,122.5C 440.951,113.056 446.451,107.056 455.5,104.5 Z"/></g>
<g><path style="opacity:1" fill="#545454" d="M 495.5,106.5 C 506.654,105.505 517.988,105.172 529.5,105.5C 529.5,109.833 529.5,114.167 529.5,118.5C 529.167,118.5 528.833,118.5 528.5,118.5C 528.5,114.5 528.5,110.5 528.5,106.5C 517.5,106.5 506.5,106.5 495.5,106.5 Z"/></g>
<g><path style="opacity:0.99" fill="#060606" d="M 48.5,106.5 C 48.5,110.5 48.5,114.5 48.5,118.5C 44.8333,118.5 41.1667,118.5 37.5,118.5C 37.5,146.833 37.5,175.167 37.5,203.5C 32.5,203.5 27.5,203.5 22.5,203.5C 22.5,175.167 22.5,146.833 22.5,118.5C 18.8333,118.5 15.1667,118.5 11.5,118.5C 11.5,114.5 11.5,110.5 11.5,106.5C 23.8333,106.5 36.1667,106.5 48.5,106.5 Z"/></g>
<g><path style="opacity:1" fill="#4c4c4c" d="M 71.5,106.5 C 66.8333,106.5 62.1667,106.5 57.5,106.5C 57.5,138.833 57.5,171.167 57.5,203.5C 56.5017,171.004 56.1684,138.338 56.5,105.5C 61.6946,105.179 66.6946,105.513 71.5,106.5 Z"/></g>
<g><path style="opacity:1" fill="#000000" d="M 71.5,106.5 C 71.5,119.5 71.5,132.5 71.5,145.5C 75.8333,145.5 80.1667,145.5 84.5,145.5C 85.4955,132.677 85.8288,119.677 85.5,106.5C 90.1667,106.5 94.8333,106.5 99.5,106.5C 99.5,138.833 99.5,171.167 99.5,203.5C 94.8333,203.5 90.1667,203.5 85.5,203.5C 85.5,188.167 85.5,172.833 85.5,157.5C 80.6367,157.181 75.97,157.514 71.5,158.5C 71.5,173.5 71.5,188.5 71.5,203.5C 66.8333,203.5 62.1667,203.5 57.5,203.5C 57.5,171.167 57.5,138.833 57.5,106.5C 62.1667,106.5 66.8333,106.5 71.5,106.5 Z"/></g>
<g><path style="opacity:1" fill="#050505" d="M 495.5,106.5 C 506.5,106.5 517.5,106.5 528.5,106.5C 528.5,110.5 528.5,114.5 528.5,118.5C 522.5,118.5 516.5,118.5 510.5,118.5C 510.5,127.167 510.5,135.833 510.5,144.5C 515.975,145.489 521.642,145.822 527.5,145.5C 527.5,149.5 527.5,153.5 527.5,157.5C 521.833,157.5 516.167,157.5 510.5,157.5C 510.5,172.833 510.5,188.167 510.5,203.5C 505.5,203.5 500.5,203.5 495.5,203.5C 495.5,171.167 495.5,138.833 495.5,106.5 Z"/></g>
<g><path style="opacity:1" fill="#656565" d="M 270.5,103.5 C 271.434,104.568 271.768,105.901 271.5,107.5C 272.5,107.5 273.5,107.5 274.5,107.5C 273.432,108.434 272.099,108.768 270.5,108.5C 270.5,106.833 270.5,105.167 270.5,103.5 Z"/></g>
<g><path style="opacity:1" fill="#2b2b2b" d="M 129.5,203.5 C 129.5,171.167 129.5,138.833 129.5,106.5C 125.167,106.5 120.833,106.5 116.5,106.5C 116.5,138.833 116.5,171.167 116.5,203.5C 115.502,171.004 115.168,138.338 115.5,105.5C 120.5,105.5 125.5,105.5 130.5,105.5C 130.832,138.338 130.498,171.004 129.5,203.5 Z"/></g>
<g><path style="opacity:1" fill="#000000" d="M 129.5,203.5 C 125.167,203.5 120.833,203.5 116.5,203.5C 116.5,171.167 116.5,138.833 116.5,106.5C 120.833,106.5 125.167,106.5 129.5,106.5C 129.5,138.833 129.5,171.167 129.5,203.5 Z"/></g>
<g><path style="opacity:1" fill="#878787" d="M 99.5,203.5 C 99.5,171.167 99.5,138.833 99.5,106.5C 94.8333,106.5 90.1667,106.5 85.5,106.5C 85.8288,119.677 85.4955,132.677 84.5,145.5C 84.5,132.167 84.5,118.833 84.5,105.5C 89.8333,105.5 95.1667,105.5 100.5,105.5C 100.832,138.338 100.498,171.004 99.5,203.5 Z"/></g>
<g><path style="opacity:1" fill="#616161" d="M 53.5,116.5 C 54.4345,115.432 54.7678,114.099 54.5,112.5C 53.1667,112.5 51.8333,112.5 50.5,112.5C 50.5,113.833 50.5,115.167 50.5,116.5C 49.5489,115.081 49.2155,113.415 49.5,111.5C 51.5,111.5 53.5,111.5 55.5,111.5C 55.7989,113.604 55.4656,115.604 54.5,117.5C 53.8933,117.376 53.56,117.043 53.5,116.5 Z"/></g>
<g><path style="opacity:0.676" fill="#020202" d="M 53.5,116.5 C 52.5,116.5 51.5,116.5 50.5,116.5C 50.5,115.167 50.5,113.833 50.5,112.5C 51.8333,112.5 53.1667,112.5 54.5,112.5C 54.7678,114.099 54.4345,115.432 53.5,116.5 Z"/></g>
<g><path style="opacity:1" fill="#898989" d="M 336.5,131.5 C 335.259,124.817 333.926,118.15 332.5,111.5C 332.369,110.624 332.702,109.957 333.5,109.5C 335.247,116.731 336.247,124.065 336.5,131.5 Z"/></g>
<g><path style="opacity:1" fill="#f6f6f6" d="M 332.5,111.5 C 333.926,118.15 335.259,124.817 336.5,131.5C 336.5,131.833 336.5,132.167 336.5,132.5C 336.156,137.122 336.823,141.455 338.5,145.5C 340.166,158.163 341.833,170.83 343.5,183.5C 336.745,184.123 330.412,183.456 324.5,181.5C 325.191,171.991 326.191,162.657 327.5,153.5C 328.972,149.081 329.638,144.414 329.5,139.5C 329.5,137.833 329.5,136.167 329.5,134.5C 330.222,134.082 330.722,133.416 331,132.5C 331.498,129.183 331.665,125.85 331.5,122.5C 331.552,118.802 331.886,115.135 332.5,111.5 Z"/></g>
<g><path style="opacity:1" fill="#f7f7f7" d="M 466.5,122.5 C 466.801,144.533 466.468,166.533 465.5,188.5C 465.047,189.458 464.381,190.292 463.5,191C 460.901,191.769 458.401,191.602 456,190.5C 455.178,188.212 454.511,185.878 454,183.5C 453.333,163.167 453.333,142.833 454,122.5C 456.196,117.46 459.696,116.293 464.5,119C 465.823,119.816 466.489,120.983 466.5,122.5 Z"/></g>
<g><path style="opacity:1" fill="#c4c4c4" d="M 528.5,118.5 C 528.833,118.5 529.167,118.5 529.5,118.5C 523.69,119.49 517.69,119.823 511.5,119.5C 511.5,127.833 511.5,136.167 511.5,144.5C 511.167,144.5 510.833,144.5 510.5,144.5C 510.5,135.833 510.5,127.167 510.5,118.5C 516.5,118.5 522.5,118.5 528.5,118.5 Z"/></g>
<g><path style="opacity:1" fill="#adadad" d="M 197.5,115.5 C 199.031,120.25 199.698,125.25 199.5,130.5C 198.111,125.731 197.444,120.731 197.5,115.5 Z"/></g>
<g><path style="opacity:1" fill="#b2b2b2" d="M 331.5,122.5 C 331.665,125.85 331.498,129.183 331,132.5C 330.722,133.416 330.222,134.082 329.5,134.5C 329.851,130.316 330.518,126.316 331.5,122.5 Z"/></g>
<g><path style="opacity:1" fill="#717171" d="M 466.5,122.5 C 467.663,143.663 467.829,164.996 467,186.5C 466.722,187.416 466.222,188.082 465.5,188.5C 466.468,166.533 466.801,144.533 466.5,122.5 Z"/></g>
<g><path style="opacity:1" fill="#959595" d="M 553.5,134.5 C 552.514,138.97 552.181,143.637 552.5,148.5C 551.345,141.679 551.179,134.679 552,127.5C 552.662,129.813 553.162,132.146 553.5,134.5 Z"/></g>
<g><path style="opacity:0.086" fill="#4b4b4b" d="M 43.5,134.5 C 44.087,133.233 44.087,132.233 43.5,131.5C 42.2638,132.246 40.9305,132.579 39.5,132.5C 41.4551,130.674 43.7884,130.174 46.5,131C 45.8366,132.518 44.8366,133.685 43.5,134.5 Z"/></g>
<g><path style="opacity:0.92" fill="#c3c3c3" d="M 11.5,118.5 C 15.1667,118.5 18.8333,118.5 22.5,118.5C 22.5,146.833 22.5,175.167 22.5,203.5C 27.5,203.5 32.5,203.5 37.5,203.5C 37.5,204.167 37.8333,204.5 38.5,204.5C 38.5,204.833 38.5,205.167 38.5,205.5C 32.5,205.5 26.5,205.5 20.5,205.5C 20.5,180.833 20.5,156.167 20.5,131.5C 21.4794,128.375 21.8128,125.042 21.5,121.5C 18.929,119.994 15.5957,118.994 11.5,118.5 Z"/></g>
<g><path style="opacity:0.278" fill="#808080" d="M 39.5,132.5 C 39.2053,134.735 39.5386,136.735 40.5,138.5C 40.6309,139.376 40.2975,140.043 39.5,140.5C 38.1997,137.691 38.1997,135.024 39.5,132.5 Z"/></g>
<g><path style="opacity:1" fill="#b1b1b1" d="M 248.5,132.5 C 249.525,135.974 250.192,139.64 250.5,143.5C 249.883,143.389 249.383,143.056 249,142.5C 248.502,139.183 248.335,135.85 248.5,132.5 Z"/></g>
<g><path style="opacity:1" fill="#747474" d="M 610.5,143.5 C 610.813,139.958 610.479,136.625 609.5,133.5C 609.491,131.692 609.991,130.025 611,128.5C 611.816,133.684 611.65,138.684 610.5,143.5 Z"/></g>
<g><path style="opacity:1" fill="#a4a4a4" d="M 336.5,132.5 C 337.563,136.639 338.23,140.972 338.5,145.5C 336.823,141.455 336.156,137.122 336.5,132.5 Z"/></g>
<g><path style="opacity:1" fill="#484848" d="M 310.5,132.5 C 310.72,137.1 310.054,141.433 308.5,145.5C 308.28,140.9 308.946,136.567 310.5,132.5 Z"/></g>
<g><path style="opacity:1" fill="#737373" d="M 510.5,144.5 C 510.833,144.5 511.167,144.5 511.5,144.5C 517.167,144.5 522.833,144.5 528.5,144.5C 528.818,149.032 528.485,153.366 527.5,157.5C 527.5,153.5 527.5,149.5 527.5,145.5C 521.642,145.822 515.975,145.489 510.5,144.5 Z"/></g>
<g><path style="opacity:1" fill="#f2f2f2" d="M 609.5,133.5 C 610.479,136.625 610.813,139.958 610.5,143.5C 610.5,151.5 610.5,159.5 610.5,167.5C 609.833,185.5 609.167,203.5 608.5,221.5C 599.887,220.955 594.22,224.621 591.5,232.5C 596.983,199.419 602.983,166.419 609.5,133.5 Z"/></g>
<g><path style="opacity:1" fill="#888888" d="M 814.5,103.5 C 814.5,103.833 814.5,104.167 814.5,104.5C 814.5,118.5 814.5,132.5 814.5,146.5C 823.349,146.174 832.016,146.507 840.5,147.5C 840.167,147.5 839.833,147.5 839.5,147.5C 830.833,147.5 822.167,147.5 813.5,147.5C 813.171,132.657 813.504,117.99 814.5,103.5 Z"/></g>
<g><path style="opacity:1" fill="#a0a0a0" d="M 329.5,139.5 C 329.638,144.414 328.972,149.081 327.5,153.5C 327.362,148.586 328.028,143.919 329.5,139.5 Z"/></g>
<g><path style="opacity:0.137" fill="#484848" d="M 859.5,150.5 C 861.113,151.692 862.78,152.692 864.5,153.5C 861.715,154.084 860.048,153.084 859.5,150.5 Z"/></g>
<g><path style="opacity:1" fill="#969696" d="M 250.5,146.5 C 251.889,151.269 252.556,156.269 252.5,161.5C 251.111,156.731 250.444,151.731 250.5,146.5 Z"/></g>
<g><path style="opacity:1" fill="#898989" d="M 71.5,158.5 C 75.97,157.514 80.6367,157.181 85.5,157.5C 85.5,172.833 85.5,188.167 85.5,203.5C 84.5039,188.676 84.1706,173.676 84.5,158.5C 80.1667,158.5 75.8333,158.5 71.5,158.5 Z"/></g>
<g><path style="opacity:1" fill="#c9c9c9" d="M 527.5,157.5 C 522.36,158.488 517.026,158.821 511.5,158.5C 511.829,173.676 511.496,188.676 510.5,203.5C 510.5,188.167 510.5,172.833 510.5,157.5C 516.167,157.5 521.833,157.5 527.5,157.5 Z"/></g>
<g><path style="opacity:1" fill="#9c9c9c" d="M 245.5,149.5 C 245.638,154.414 244.972,159.081 243.5,163.5C 243.362,158.586 244.028,153.919 245.5,149.5 Z"/></g>
<g><path style="opacity:1" fill="#515151" d="M 839.5,147.5 C 839.833,147.5 840.167,147.5 840.5,147.5C 840.5,153.833 840.5,160.167 840.5,166.5C 831.833,166.5 823.167,166.5 814.5,166.5C 822.65,165.507 830.983,165.174 839.5,165.5C 839.5,159.5 839.5,153.5 839.5,147.5 Z"/></g>
<g><path style="opacity:1" fill="#373737" d="M 157.5,168.5 C 153.167,168.5 148.833,168.5 144.5,168.5C 144.5,173.5 144.5,178.5 144.5,183.5C 143.512,178.36 143.179,173.026 143.5,167.5C 148.363,167.181 153.03,167.514 157.5,168.5 Z"/></g>
<g><path style="opacity:1" fill="#9f9f9f" d="M 252.5,162.5 C 253.709,166.618 254.376,170.951 254.5,175.5C 252.946,171.433 252.28,167.1 252.5,162.5 Z"/></g>
<g><path style="opacity:0.4" fill="#888888" d="M 40.5,166.5 C 39.8333,179.5 39.1667,192.5 38.5,205.5C 38.5,205.167 38.5,204.833 38.5,204.5C 38.3334,190.496 38.5001,176.496 39,162.5C 40.1882,163.563 40.6882,164.897 40.5,166.5 Z"/></g>
<g><path style="opacity:1" fill="#6b6b6b" d="M 434.5,164.5 C 435.889,169.269 436.556,174.269 436.5,179.5C 434.969,174.75 434.302,169.75 434.5,164.5 Z"/></g>
<g><path style="opacity:1" fill="#636363" d="M 223.5,174.5 C 224.167,176.5 224.833,178.5 225.5,180.5C 225.762,181.978 225.429,183.311 224.5,184.5C 223.513,181.232 223.18,177.898 223.5,174.5 Z"/></g>
<g><path style="opacity:1" fill="#555555" d="M 269.5,173.5 C 270.314,175.631 270.814,177.964 271,180.5C 271.191,178.292 271.691,176.292 272.5,174.5C 272.82,177.898 272.487,181.232 271.5,184.5C 269.777,181.06 269.11,177.394 269.5,173.5 Z"/></g>
<g><path style="opacity:1" fill="#545454" d="M 362.5,175.5 C 363.617,179.295 364.283,183.295 364.5,187.5C 362.864,183.79 362.198,179.79 362.5,175.5 Z"/></g>
<g><path style="opacity:1" fill="#868686" d="M 324.5,181.5 C 330.412,183.456 336.745,184.123 343.5,183.5C 337.021,184.491 330.354,184.824 323.5,184.5C 323.263,183.209 323.596,182.209 324.5,181.5 Z"/></g>
<g><path style="opacity:1" fill="#8d8d8d" d="M 204.5,170.5 C 205.889,175.269 206.556,180.269 206.5,185.5C 205.111,180.731 204.444,175.731 204.5,170.5 Z"/></g>
<g><path style="opacity:1" fill="#505050" d="M 300.5,201.5 C 300.638,206.414 299.972,211.081 298.5,215.5C 298.5,214.5 298.5,213.5 298.5,212.5C 298.646,208.613 299.313,204.946 300.5,201.5 Z"/></g>
<g><path style="opacity:1" fill="#4c4c4c" d="M 814.5,213.5 C 823.833,213.5 833.167,213.5 842.5,213.5C 842.824,220.354 842.491,227.021 841.5,233.5C 841.5,227.167 841.5,220.833 841.5,214.5C 832.318,214.827 823.318,214.493 814.5,213.5 Z"/></g>
<g><path style="opacity:1" fill="#979797" d="M 236.5,213.5 C 236.556,218.731 235.889,223.731 234.5,228.5C 234.444,223.269 235.111,218.269 236.5,213.5 Z"/></g>
<g><path style="opacity:0.141" fill="#2a2a2a" d="M 294.5,218.5 C 295.167,218.5 295.833,218.5 296.5,218.5C 296.768,220.099 296.434,221.432 295.5,222.5C 295.567,221.041 295.234,219.708 294.5,218.5 Z"/></g>
<g><path style="opacity:1" fill="#808080" d="M 436.5,220.5 C 437.477,223.287 437.81,226.287 437.5,229.5C 429.648,229.825 421.982,229.492 414.5,228.5C 421.833,228.5 429.167,228.5 436.5,228.5C 436.5,225.833 436.5,223.167 436.5,220.5 Z"/></g>
<g><path style="opacity:0.613" fill="#9b9b9b" d="M 285.5,220.5 C 286.858,220.822 288.525,220.822 290.5,220.5C 286.771,222.633 285.105,225.967 285.5,230.5C 275.801,230.725 266.134,230.392 256.5,229.5C 259.706,227.936 261.04,225.269 260.5,221.5C 261.468,223.607 261.802,225.941 261.5,228.5C 269.167,228.5 276.833,228.5 284.5,228.5C 284.194,225.615 284.527,222.948 285.5,220.5 Z"/></g>
<g><path style="opacity:0.767" fill="#9f9f9f" d="M 298.5,212.5 C 298.5,213.5 298.5,214.5 298.5,215.5C 298.112,219.552 297.445,223.552 296.5,227.5C 303.803,228.497 311.137,228.831 318.5,228.5C 318.19,225.287 318.523,222.287 319.5,219.5C 319.5,222.5 319.5,225.5 319.5,228.5C 321.415,228.216 323.081,228.549 324.5,229.5C 320.423,229.735 316.423,230.402 312.5,231.5C 310.929,230.691 309.262,230.357 307.5,230.5C 306.167,230.5 304.833,230.5 303.5,230.5C 300.833,230.5 298.167,230.5 295.5,230.5C 295.5,227.833 295.5,225.167 295.5,222.5C 296.434,221.432 296.768,220.099 296.5,218.5C 297.167,216.5 297.833,214.5 298.5,212.5 Z"/></g>
<g><path style="opacity:0.086" fill="#131313" d="M 303.5,230.5 C 304.833,230.5 306.167,230.5 307.5,230.5C 307.167,231.167 306.833,231.833 306.5,232.5C 305.833,232.5 305.167,232.5 304.5,232.5C 304.167,231.833 303.833,231.167 303.5,230.5 Z"/></g>
<g><path style="opacity:0.838" fill="#a5a5a5" d="M 570.5,222.5 C 571.785,225.589 572.451,228.922 572.5,232.5C 578.833,232.5 585.167,232.5 591.5,232.5C 591.389,233.117 591.056,233.617 590.5,234C 584.5,234.667 578.5,234.667 572.5,234C 571.083,230.778 569.749,227.612 568.5,224.5C 569.167,223.833 569.833,223.167 570.5,222.5 Z"/></g>
<g><path style="opacity:0.99" fill="#dadada" d="M 304.5,232.5 C 305.167,232.5 305.833,232.5 306.5,232.5C 308.359,232.461 309.692,233.294 310.5,235C 309.62,236.356 309.286,237.856 309.5,239.5C 304.585,239.313 302.919,236.98 304.5,232.5 Z"/></g>
<g><path style="opacity:0.271" fill="#5d5d5d" d="M 501.5,235.5 C 502.715,236.779 502.382,237.779 500.5,238.5C 500.557,237.391 500.89,236.391 501.5,235.5 Z"/></g>
<g><path style="opacity:0.99" fill="#c7c7c7" d="M 316.5,237.5 C 318.635,237.147 319.968,237.98 320.5,240C 319.395,244.819 317.395,245.485 314.5,242C 315.044,240.415 315.711,238.915 316.5,237.5 Z"/></g>
<g><path style="opacity:0.424" fill="#c2c2c2" d="M 253.5,247.5 C 254.251,246.427 255.251,246.26 256.5,247C 255.552,247.483 254.552,247.649 253.5,247.5 Z"/></g>
<g><path style="opacity:0.839" fill="#a5a5a5" d="M 315.5,249.5 C 312.833,249.5 310.167,249.5 307.5,249.5C 307.5,250.833 307.5,252.167 307.5,253.5C 305.992,250.92 306.659,248.92 309.5,247.5C 311.657,248.05 313.657,248.717 315.5,249.5 Z"/></g>
<g><path style="opacity:0.959" fill="#eeeeee" d="M 481.5,246.5 C 484.152,248.462 484.152,250.462 481.5,252.5C 480.306,250.484 480.306,248.484 481.5,246.5 Z"/></g>
<g><path style="opacity:0.996" fill="#eaeaea" d="M 315.5,249.5 C 316.391,250.261 317.058,251.261 317.5,252.5C 315.749,255.206 313.749,257.706 311.5,260C 315.699,267.462 314.532,268.296 308,262.5C 307.502,259.518 307.335,256.518 307.5,253.5C 307.5,252.167 307.5,250.833 307.5,249.5C 310.167,249.5 312.833,249.5 315.5,249.5 Z"/></g>
<g><path style="opacity:0.894" fill="#d9d9d9" d="M 227.5,261.5 C 231.089,262.372 231.423,264.039 228.5,266.5C 227.692,266.192 227.025,265.692 226.5,265C 227.337,263.989 227.67,262.822 227.5,261.5 Z"/></g>
<g><path style="opacity:0.741" fill="#d5d5d5" d="M 132.5,267.5 C 134.337,267.639 134.67,268.306 133.5,269.5C 132.702,269.043 132.369,268.376 132.5,267.5 Z"/></g>
<g><path style="opacity:0.982" fill="#e1e1e1" d="M 141.5,272.5 C 143.5,272.5 145.5,272.5 147.5,272.5C 147.946,275.389 148.946,278.056 150.5,280.5C 150.167,282.167 149.167,283.167 147.5,283.5C 145.528,279.895 142.861,276.895 139.5,274.5C 140.243,273.818 140.909,273.151 141.5,272.5 Z"/></g>
<g><path style="opacity:0.82" fill="#dcdcdc" d="M 349.5,271.5 C 351.973,271.947 352.14,272.947 350,274.5C 349.517,273.552 349.351,272.552 349.5,271.5 Z"/></g>
<g><path style="opacity:0.987" fill="#d7d7d7" d="M 230.5,274.5 C 233.502,275.619 235.502,277.786 236.5,281C 234.522,283.015 232.688,282.848 231,280.5C 229.668,278.45 229.502,276.45 230.5,274.5 Z"/></g>
<g><path style="opacity:0.977" fill="#c8c8c8" d="M 385.5,274.5 C 387.8,274.522 388.967,275.522 389,277.5C 387.887,278.711 386.72,278.711 385.5,277.5C 384.438,276.575 384.438,275.575 385.5,274.5 Z"/></g>
<g><path style="opacity:0.984" fill="#d9d9d9" d="M 127.5,275.5 C 133.463,277.383 133.796,279.717 128.5,282.5C 124.987,280.627 124.654,278.294 127.5,275.5 Z"/></g>
<g><path style="opacity:0.993" fill="#c1c1c1" d="M 174.5,287.5 C 173.5,287.5 172.5,287.5 171.5,287.5C 170.032,286.221 169.365,284.554 169.5,282.5C 173.738,282.091 175.405,283.758 174.5,287.5 Z"/></g>
</svg>
